<?xml version="1.0" encoding="UTF-8"?>
<!DOCTYPE svg PUBLIC "-//W3C//DTD SVG 1.1//EN" "http://www.w3.org/Graphics/SVG/1.1/DTD/svg11.dtd">
<svg xmlns="http://www.w3.org/2000/svg" version="1.1" width="64px" height="64px" style="shape-rendering:geometricPrecision; text-rendering:geometricPrecision; image-rendering:optimizeQuality; fill-rule:evenodd; clip-rule:evenodd" xmlns:xlink="http://www.w3.org/1999/xlink">
<g><path style="opacity:0.944" fill="#305681" d="M 63.5,13.5 C 63.5,16.1667 63.5,18.8333 63.5,21.5C 62.1779,21.67 61.0113,21.3366 60,20.5C 59.7435,23.557 59.2435,26.557 58.5,29.5C 59.325,30.3857 60.325,30.719 61.5,30.5C 61.5,40.5 61.5,50.5 61.5,60.5C 40.8333,60.5 20.1667,60.5 -0.5,60.5C -0.5,47.5 -0.5,34.5 -0.5,21.5C 3.86886,21.4672 8.2022,21.8005 12.5,22.5C 12.1667,24.5 11.8333,26.5 11.5,28.5C 14.7766,28.2161 17.9433,28.5495 21,29.5C 20.8192,32.5425 20.4859,35.5425 20,38.5C 22.2481,35.672 24.2481,32.672 26,29.5C 27.1096,27.9632 28.6096,27.2965 30.5,27.5C 30.472,25.4176 31.1387,23.5843 32.5,22C 31.7734,20.6012 31.2734,19.1012 31,17.5C 30.3333,18.8333 29.6667,18.8333 29,17.5C 28.3333,15.5 28.3333,13.5 29,11.5C 35.1879,7.64894 41.6879,4.8156 48.5,3C 53.3978,6.74512 58.3978,10.2451 63.5,13.5 Z"/></g>
<g><path style="opacity:1" fill="#f7f8fa" d="M 45.5,9.5 C 49.711,11.5313 53.5444,14.198 57,17.5C 56.7093,21.7738 56.5427,26.1071 56.5,30.5C 54.5,30.5 52.5,30.5 50.5,30.5C 50.4511,27.6257 50.7844,24.7923 51.5,22C 51.2451,20.6739 50.5784,19.6739 49.5,19C 46.5,18.3333 43.5,18.3333 40.5,19C 39.7887,21.7963 39.122,24.6296 38.5,27.5C 36.9547,28.4519 35.288,28.7852 33.5,28.5C 34.0355,24.181 34.5355,19.8477 35,15.5C 38.6441,13.5993 42.1441,11.5993 45.5,9.5 Z"/></g>
<g><path style="opacity:0.91" fill="#5fa2eb" d="M 46.5,5.5 C 51.7441,8.73106 56.7441,12.3977 61.5,16.5C 60.9984,17.521 60.3317,17.6877 59.5,17C 55.6065,13.4354 51.4398,10.2687 47,7.5C 41.8125,9.45043 36.8125,11.7838 32,14.5C 31.3123,13.6683 31.479,13.0016 32.5,12.5C 37.2585,10.1207 41.9252,7.78739 46.5,5.5 Z"/></g>
<g><path style="opacity:1" fill="#65adf9" d="M 41.5,20.5 C 44.1194,20.2317 46.6194,20.565 49,21.5C 48.7446,24.0816 48.578,26.7482 48.5,29.5C 46.1667,29.5 43.8333,29.5 41.5,29.5C 41.5,26.5 41.5,23.5 41.5,20.5 Z"/></g>
<g><path style="opacity:1" fill="#67affc" d="M 1.5,23.5 C 4.20299,23.9519 6.86966,24.6185 9.5,25.5C 8.25279,27.323 7.58613,29.323 7.5,31.5C 11.1817,31.3347 14.8484,31.5014 18.5,32C 16.7605,37.7882 15.0938,43.6216 13.5,49.5C 14,49.8333 14.5,50.1667 15,50.5C 19.6131,44.1172 24.1131,37.6172 28.5,31C 33.6156,30.2906 38.6156,30.7906 43.5,32.5C 41.8333,33.6667 40.1667,34.8333 38.5,36C 41.3407,39.1588 40.674,41.4922 36.5,43C 37.7875,44.4095 38.9542,45.9095 40,47.5C 40.5,47 41,46.5 41.5,46C 40.1356,43.4248 40.8023,41.4248 43.5,40C 42.4528,38.4223 42.4528,36.9223 43.5,35.5C 44.8333,36.5 46.1667,37.5 47.5,38.5C 48.8333,37.5 50.1667,36.5 51.5,35.5C 50.467,34.548 49.3004,34.548 48,35.5C 46.7202,35.3865 45.8869,34.7199 45.5,33.5C 49.7953,32.3391 54.1287,32.1725 58.5,33C 59.4825,41.081 59.8158,49.2476 59.5,57.5C 40.1638,57.6666 20.8305,57.5 1.5,57C 21.2958,55.3737 21.2958,54.5404 1.5,54.5C 1.5,44.1667 1.5,33.8333 1.5,23.5 Z"/></g>
</svg>
