<?xml version="1.0" encoding="utf-8"?>
<!-- Generator: Adobe Illustrator 27.5.0, SVG Export Plug-In . SVG Version: 6.00 Build 0)  -->
<svg version="1.1" xmlns="http://www.w3.org/2000/svg" xmlns:xlink="http://www.w3.org/1999/xlink" x="0px" y="0px"
	 viewBox="0 0 750 500" style="enable-background:new 0 0 750 500;" xml:space="preserve">
<g id="BACKGROUND">
	<rect y="-0.369" style="fill:#CAE6ED;" width="750" height="500.738"/>
</g>
<g id="OBJECTS">
	<g>
		<defs>
			<rect id="SVGID_1_" width="750" height="500"/>
		</defs>
		<clipPath id="SVGID_00000023963539845752117030000012446037078405405114_">
			<use xlink:href="#SVGID_1_"  style="overflow:visible;"/>
		</clipPath>
		<g style="clip-path:url(#SVGID_00000023963539845752117030000012446037078405405114_);">
			<path style="fill:#FFFFFF;" d="M402.829,227.431c-11.772,0.488-21.825-8.849-27.534-19.154
				c-5.71-10.306-8.561-22.024-14.506-32.196c-13.137-22.477-42.012-34.437-67.194-27.833c6.37-22.296-13.649-45.237-36.227-50.524
				c-22.578-5.288-46.02,2.078-67.821,9.978c-4.83,1.75-9.945,3.559-14.993,2.604c-7.472-1.414-12.611-8.571-14.768-15.864
				c-2.157-7.293-2.118-15.048-3.647-22.497c-6.139-29.914-35.838-49.043-64.907-58.398C50.686,0.498,6.238-0.138-34.663,11.745
				c8.479,53.375,10.672,109.779,10.538,163.823c46.454,42.793,104.115,73.791,165.632,88.102
				c61.518,14.31,125.6,15.344,188.389,8.512c12.096-1.316,24.38-2.982,35.42-8.098
				C384.057,255.397,382.581,231.518,402.829,227.431z"/>
			<path style="fill:#FFFFFF;" d="M814.373,104.6c-7.57-32.49-39.188-56.015-72.312-59.975c-33.124-3.96-66.612,9.099-92.987,29.525
				c-13.224,10.242-27.12,23.077-43.797,21.785c-6.639-0.514-12.895-3.315-19.476-4.333c-15.978-2.473-31.74,5.794-44.228,16.063
				c-28.107,23.112-46.138,58.073-48.673,94.373c-27.189,3.305-51.309,24.517-58.059,51.062c8.787,7.813,20.89,9.902,32.127,13.366
				c67.493,20.802,140.323,24.02,209.387,9.252c42.504-9.089,84.877-25.741,115.276-56.807S824.236,146.932,814.373,104.6z"/>
			<g>
				<path style="fill:none;stroke:#CAE6ED;stroke-linecap:round;stroke-linejoin:round;stroke-miterlimit:10;" d="M499.511,197.053
					c0.438-9.214,2.309-18.358,5.524-27.003"/>
				<path style="fill:none;stroke:#CAE6ED;stroke-linecap:round;stroke-linejoin:round;stroke-miterlimit:10;" d="M507.048,163.055
					c0.667-1.333,1.333-2.667,2-4"/>
				<path style="fill:none;stroke:#CAE6ED;stroke-linecap:round;stroke-linejoin:round;stroke-miterlimit:10;" d="M506.933,178.037
					c0.815-5.34,2.38-10.565,4.634-15.474"/>
				<path style="fill:none;stroke:#CAE6ED;stroke-linecap:round;stroke-linejoin:round;stroke-miterlimit:10;" d="M452.364,228.42
					c3.252-4.445,7.705-8.003,12.759-10.192"/>
				<path style="fill:none;stroke:#CAE6ED;stroke-linecap:round;stroke-linejoin:round;stroke-miterlimit:10;" d="M639.656,91.671
					c13.228-12.194,28.67-21.98,45.344-28.737"/>
				<path style="fill:none;stroke:#CAE6ED;stroke-linecap:round;stroke-linejoin:round;stroke-miterlimit:10;" d="M668.355,65.278
					c7.142-4.982,15.252-8.571,23.742-10.507"/>
				<path style="fill:none;stroke:#CAE6ED;stroke-linecap:round;stroke-linejoin:round;stroke-miterlimit:10;" d="M692.051,60.558
					c1.303-1.026,2.863-1.723,4.497-2.009"/>
				<path style="fill:none;stroke:#CAE6ED;stroke-linecap:round;stroke-linejoin:round;stroke-miterlimit:10;" d="M706.055,54.076
					c1.667-0.499,3.334-0.999,5-1.498"/>
				<path style="fill:none;stroke:#CAE6ED;stroke-linecap:round;stroke-linejoin:round;stroke-miterlimit:10;" d="M261.932,107.613
					c9.012,4.157,16.583,11.366,21.177,20.164"/>
				<path style="fill:none;stroke:#CAE6ED;stroke-linecap:round;stroke-linejoin:round;stroke-miterlimit:10;" d="M280.667,115.638
					c4.291,6.038,7.425,12.896,9.181,20.092"/>
				<path style="fill:none;stroke:#CAE6ED;stroke-linecap:round;stroke-linejoin:round;stroke-miterlimit:10;" d="M149.855,89.723
					c-0.711-19-8.13-37.683-20.649-51.993"/>
				<path style="fill:none;stroke:#CAE6ED;stroke-linecap:round;stroke-linejoin:round;stroke-miterlimit:10;" d="M114.521,31.793
					c6.872,2.621,12.28,8.785,13.984,15.939"/>
			</g>
		</g>
		<g style="clip-path:url(#SVGID_00000023963539845752117030000012446037078405405114_);">
			<path style="fill:#86C3CE;" d="M699.936,175.198c9.695,4.346,20.862,4.6,30.476,9.123c24.281,11.423,30.431,45.129,53.507,58.824
				c14.949,27.599,21.839,68.034,26.986,98.997c6.811,40.975,13.04,85.64-7.23,121.895c-20.427,36.537-62.807,54.854-103.65,64.022
				c-39.915,8.96-80.939,11.605-121.763,14.222c-165,10.578-318.253,72.491-480.712,41.774c-28.359-5.362-114.943-24.324-134-46
				c-16.72-19.018-2.364-76.94-6-102c-12.633-87.069-47.279-172.476-0.274-246.847c19.735-31.225,45.211-58.809,74.772-80.959
				c22.332-16.733,69.14-35.412,81.936,2.514c2.97,8.804,4.192,18.482,9.681,25.979c4.199,5.737,10.51,9.608,14.958,15.154
				c9.854,12.287,11.006,32.752,25.767,38.246c9.629,3.583,20.487-1.74,27.648-9.107c7.161-7.367,12.017-16.697,19.001-24.232
				c15.401-16.614,37.964-20.322,59.16-15.343c23.153,5.439,30.919,29.405,39.365,49.633c7.515,17.999,16.437,35.411,26.658,52.023
				c5.248,8.53,12.715,17.853,22.713,17.275c7.934-0.459,13.922-7.08,19.041-13.158c16.804-19.953,25.563-49.818,51.574-47.845
				c12,7.333,18.362,29.366,24.714,37.794c6.352,8.428,17.037,14.471,27.355,12.249c21.625-4.657,21.659-30.053,39.02-39.572
				c2.732-1.498,5.668-2.628,8.27-4.342c10.879-7.167,12.978-21.894,18.738-33.579c0.932-1.891,2.013-3.768,3.625-5.127
				c1.844-1.556,4.215-2.301,6.38-3.366c10.103-4.972,14.983-16.327,19.919-26.447c8.135-16.677,19.466-28.694,37.648-34.375
				c2.918-0.912,5.907-1.643,8.953-1.913c19.781-1.751,30.796,18.335,39.909,33.003
				C673.604,149.047,682.568,167.412,699.936,175.198z"/>
			<g>
				<path style="fill:none;stroke:#5E9FA5;stroke-linecap:round;stroke-linejoin:round;stroke-miterlimit:10;" d="M585.191,136.617
					c4.466-10.235,12.788-18.732,22.927-23.41"/>
				<path style="fill:none;stroke:#5E9FA5;stroke-miterlimit:10;" d="M614.534,109.516c1.331-0.505,2.662-1.011,3.994-1.516"/>
				<path style="fill:none;stroke:#5E9FA5;stroke-linecap:round;stroke-linejoin:round;stroke-miterlimit:10;" d="M606.535,119.537
					c3.533-2.523,7.408-4.566,11.486-6.057"/>
				<path style="fill:none;stroke:#5E9FA5;stroke-linecap:round;stroke-linejoin:round;stroke-miterlimit:10;" d="M576.568,150.052
					c-2.343,6.265-6.723,11.75-12.315,15.421c-2.933,1.925-6.174,3.357-9.059,5.354c-2.886,1.996-5.487,4.727-6.285,8.144"/>
				<path style="fill:none;stroke:#5E9FA5;stroke-linecap:round;stroke-linejoin:round;stroke-miterlimit:10;" d="M547.519,186.54
					c-0.506,0.997-1.012,1.994-1.518,2.991"/>
				<path style="fill:none;stroke:#5E9FA5;stroke-linecap:round;stroke-linejoin:round;stroke-miterlimit:10;" d="M550.418,189.503
					c1.374-3.484,2.748-6.968,4.122-10.452"/>
				<path style="fill:none;stroke:#5E9FA5;stroke-linecap:round;stroke-linejoin:round;stroke-miterlimit:10;" d="M527.607,212.24
					c-6.913,2.195-12.847,7.311-16.037,13.825"/>
				<path style="fill:none;stroke:#5E9FA5;stroke-linecap:round;stroke-linejoin:round;stroke-miterlimit:10;" d="M507.576,232.068
					c-0.663,1.335-1.325,2.671-1.988,4.006"/>
				<path style="fill:none;stroke:#5E9FA5;stroke-linecap:round;stroke-linejoin:round;stroke-miterlimit:10;" d="M510.026,236.042
					c2.155-3.674,4.309-7.347,6.464-11.021"/>
				<path style="fill:none;stroke:#5E9FA5;stroke-linecap:round;stroke-linejoin:round;stroke-miterlimit:10;" d="M630.474,108.269
					c7.148,0.056,12.912,5.587,17.859,10.747"/>
				<path style="fill:none;stroke:#5E9FA5;stroke-linecap:round;stroke-linejoin:round;stroke-miterlimit:10;" d="M652.029,124.576
					c1.834,1.718,3.385,3.737,4.572,5.951"/>
				<path style="fill:none;stroke:#5E9FA5;stroke-linecap:round;stroke-linejoin:round;stroke-miterlimit:10;" d="M641.357,122.287
					c5.704,4.706,10.376,10.657,13.592,17.316"/>
				<path style="fill:none;stroke:#5E9FA5;stroke-linecap:round;stroke-linejoin:round;stroke-miterlimit:10;" d="M487.051,252.064
					c5.923-1.545,11.291-5.138,14.976-10.026"/>
				<path style="fill:none;stroke:#5E9FA5;stroke-linecap:round;stroke-linejoin:round;stroke-miterlimit:10;" d="M499.55,251.557
					c2.909-2.407,5.581-5.101,7.965-8.029"/>
				<path style="fill:none;stroke:#5E9FA5;stroke-linecap:round;stroke-linejoin:round;stroke-miterlimit:10;" d="M423.472,207.007
					c4.771-0.552,8.976,3.403,11.052,7.734c2.076,4.33,2.777,9.219,4.863,13.545"/>
				<path style="fill:none;stroke:#5E9FA5;stroke-linecap:round;stroke-linejoin:round;stroke-miterlimit:10;" d="M443.074,234.043
					c0.938,2.029,1.876,4.057,2.814,6.086"/>
				<path style="fill:none;stroke:#5E9FA5;stroke-linecap:round;stroke-linejoin:round;stroke-miterlimit:10;" d="M433.112,223.533
					c1.82,5.141,3.897,10.191,6.221,15.124"/>
				<path style="fill:none;stroke:#5E9FA5;stroke-linecap:round;stroke-linejoin:round;stroke-miterlimit:10;" d="M415.561,208.588
					c-1.36,0.503-2.593,1.344-3.557,2.427"/>
				<path style="fill:none;stroke:#5E9FA5;stroke-linecap:round;stroke-linejoin:round;stroke-miterlimit:10;" d="M449.07,245.045
					c0.525,1.155,1.051,2.31,1.576,3.465"/>
				<path style="fill:none;stroke:#5E9FA5;stroke-linecap:round;stroke-linejoin:round;stroke-miterlimit:10;" d="M402.158,222.492
					c-11.547,13.556-19.658,30.847-35.027,39.841"/>
				<path style="fill:none;stroke:#5E9FA5;stroke-linecap:round;stroke-linejoin:round;stroke-miterlimit:10;" d="M375.016,262.005
					c3.566-2.335,6.801-5.177,9.575-8.414"/>
				<path style="fill:none;stroke:#5E9FA5;stroke-linecap:round;stroke-linejoin:round;stroke-miterlimit:10;" d="M390.6,247.098
					c0.833-1,1.665-2.001,2.498-3.001"/>
				<path style="fill:none;stroke:#5E9FA5;stroke-linecap:round;stroke-linejoin:round;stroke-miterlimit:10;" d="M404.548,219.555
					c0.333-0.667,0.667-1.333,1-2"/>
				<path style="fill:none;stroke:#5E9FA5;stroke-linecap:round;stroke-linejoin:round;stroke-miterlimit:10;" d="M173.298,198.016
					c9.511-2.656,18.262-7.977,24.996-15.199"/>
				<path style="fill:none;stroke:#5E9FA5;stroke-linecap:round;stroke-linejoin:round;stroke-miterlimit:10;" d="M202.549,177.055
					c1.111-1.333,2.222-2.667,3.333-4"/>
				<path style="fill:none;stroke:#5E9FA5;stroke-linecap:round;stroke-linejoin:round;stroke-miterlimit:10;" d="M200.51,189.688
					c2.682-3.098,5.364-6.196,8.046-9.293"/>
				<path style="fill:none;stroke:#5E9FA5;stroke-linecap:round;stroke-linejoin:round;stroke-miterlimit:10;" d="M212.098,163.184
					c3.676-2.977,7.351-5.953,11.027-8.93c4.149-3.36,8.447-6.799,13.573-8.288c4.145-1.204,8.547-1.046,12.86-0.877
					c4.111,0.161,8.222,0.321,12.333,0.482"/>
				<path style="fill:none;stroke:#5E9FA5;stroke-linecap:round;stroke-linejoin:round;stroke-miterlimit:10;" d="M269.911,147.646
					c2.856,1.094,5.389,3.021,7.206,5.482"/>
				<path style="fill:none;stroke:#5E9FA5;stroke-linecap:round;stroke-linejoin:round;stroke-miterlimit:10;" d="M259.892,151.829
					c4.004-0.36,8.127,0.787,11.369,3.164"/>
				<path style="fill:none;stroke:#5E9FA5;stroke-linecap:round;stroke-linejoin:round;stroke-miterlimit:10;" d="M285.231,161.043
					c1.352,1.764,2.703,3.528,4.055,5.292"/>
				<path style="fill:none;stroke:#5E9FA5;stroke-linecap:round;stroke-linejoin:round;stroke-miterlimit:10;" d="M284.586,151.029
					c4.022,5.762,8.044,11.525,12.066,17.287"/>
				<path style="fill:none;stroke:#5E9FA5;stroke-linecap:round;stroke-linejoin:round;stroke-miterlimit:10;" d="M155.197,194.033
					c-6.529-2.951-10.072-10.044-12.286-16.859c-2.214-6.814-3.737-14.119-8.206-19.72"/>
				<path style="fill:none;stroke:#5E9FA5;stroke-linecap:round;stroke-linejoin:round;stroke-miterlimit:10;" d="M129.267,151.686
					c-0.635-0.911-1.269-1.822-1.904-2.734"/>
				<path style="fill:none;stroke:#5E9FA5;stroke-linecap:round;stroke-linejoin:round;stroke-miterlimit:10;" d="M118.547,147.723
					c7.197,6.254,12.77,14.361,16.031,23.321"/>
				<path style="fill:none;stroke:#5E9FA5;stroke-linecap:round;stroke-linejoin:round;stroke-miterlimit:10;" d="M111.998,126.078
					c-1.642-3.941-3.284-7.883-4.925-11.824c-1.527-3.667-3.08-7.378-5.482-10.542c-2.402-3.164-5.787-5.772-9.71-6.396"/>
				<path style="fill:none;stroke:#5E9FA5;stroke-linecap:round;stroke-linejoin:round;stroke-miterlimit:10;" d="M77.882,99.051
					c5.345-0.46,10.853,1.563,14.63,5.374"/>
				<path style="fill:none;stroke:#5E9FA5;stroke-linecap:round;stroke-linejoin:round;stroke-miterlimit:10;" d="M63.986,100.014
					c-4.705,1.669-9.41,3.339-14.115,5.008"/>
				<path style="fill:none;stroke:#5E9FA5;stroke-linecap:round;stroke-linejoin:round;stroke-miterlimit:10;" d="M35.922,115.116
					c1.999-1.334,3.999-2.669,5.998-4.003"/>
			</g>
		</g>
		<g style="clip-path:url(#SVGID_00000023963539845752117030000012446037078405405114_);">
			<path style="fill:#005E77;" d="M506.218,394.184c-18.934-48.649-35.342-96.749-49.169-147.128
				c-10.881,23.153-19.84,56.773-27.484,81.186c-6.797-13.719-9.617-29.008-12.364-44.07c-5.335,13.204-10.669,26.409-16.004,39.613
				c-4.387-16.481-8.774-32.961-13.161-49.442c-5.592,11.986-11.184,23.972-16.776,35.958c-2.946-21.751-9.364-47.413-15.211-66.746
				c-8,22-14.36,43.953-21.824,64.518c-4.709-13.129-9.418-26.258-14.127-39.387c-12.803,34.397-24.651,69.465-32.617,105.354
				c-2.058,9.274-5.945,18.381-10.341,26.802"/>
			<path style="fill:#86C3CE;" d="M464.59,272.131c-3.395,1.941-6.789,3.883-10.184,5.824c4.295,2.79,10.293-1.073,15.047,0.832"/>
			<path style="fill:#86C3CE;" d="M439.841,287.232c4.293,3.783,9.324,6.723,14.726,8.607c-3.192-4.941-6.952-9.514-11.182-13.602"
				/>
			<path style="fill:#86C3CE;" d="M477.14,304.334c-8.204,2.806-16.409,5.612-24.613,8.417c5.952-5.832,12.32-11.239,19.038-16.168
				c1.453-1.066,1.983-1.528,3.483-2.528"/>
			<path style="fill:none;stroke:#022733;stroke-width:1.2;stroke-linecap:round;stroke-linejoin:round;stroke-miterlimit:10;" d="
				M451.502,369.064c1.27-40.696,3.21-81.37,5.817-122.002"/>
			<path style="fill:#86C3CE;" d="M422.73,310.144c-3.265,2.412-6.531,4.825-9.797,7.237c4.701-0.331,9.402-0.662,14.103-0.993"/>
			<path style="fill:none;stroke:#022733;stroke-width:1.2;stroke-linecap:round;stroke-linejoin:round;stroke-miterlimit:10;" d="
				M413.275,327.709c0.285-14.065,1.649-28.107,4.077-41.964"/>
			<path style="fill:none;stroke:#022733;stroke-width:1.2;stroke-linecap:round;stroke-linejoin:round;stroke-miterlimit:10;" d="
				M445.92,277.024c3.064,3.816,6.128,7.631,9.192,11.447"/>
			<path style="fill:none;stroke:#022733;stroke-width:1.2;stroke-linecap:round;stroke-linejoin:round;stroke-miterlimit:10;" d="
				M454.579,323.107c6.743-4.034,13.924-7.338,21.376-9.833"/>
			<path style="fill:none;stroke:#022733;stroke-width:1.2;stroke-linecap:round;stroke-linejoin:round;stroke-miterlimit:10;" d="
				M454.692,330.001c7.688-3.952,15.377-7.903,23.065-11.855"/>
			<path style="fill:none;stroke:#022733;stroke-width:1.2;stroke-linecap:round;stroke-linejoin:round;stroke-miterlimit:10;" d="
				M437.041,307.897c5.164,5.13,10.714,9.871,16.588,14.17"/>
			<path style="fill:none;stroke:#022733;stroke-width:1.2;stroke-linecap:round;stroke-linejoin:round;stroke-miterlimit:10;" d="
				M413.301,311.181c2.908-1.971,5.816-3.943,8.725-5.914"/>
			<path style="fill:none;stroke:#022733;stroke-width:1.2;stroke-linecap:round;stroke-linejoin:round;stroke-miterlimit:10;" d="
				M415.133,326.919c3.584-2.175,7.169-4.35,10.753-6.525"/>
			<path style="fill:none;stroke:#022733;stroke-width:1.2;stroke-linecap:round;stroke-linejoin:round;stroke-miterlimit:10;" d="
				M384.048,311.055c1.84-11.749,2.9-23.619,3.172-35.507"/>
			<path style="fill:none;stroke:#022733;stroke-width:1.2;stroke-linecap:round;stroke-linejoin:round;stroke-miterlimit:10;" d="
				M378.188,294.369c2.846,2.139,5.325,4.764,7.296,7.728"/>
			<path style="fill:none;stroke:#022733;stroke-width:1.2;stroke-linecap:round;stroke-linejoin:round;stroke-miterlimit:10;" d="
				M380.666,290.943c1.947,2.051,3.893,4.101,5.84,6.152"/>
			<path style="fill:none;stroke:#022733;stroke-width:1.2;stroke-linecap:round;stroke-linejoin:round;stroke-miterlimit:10;" d="
				M351.14,312.556c0.176-22.594,1.915-45.176,5.2-67.531"/>
			<path style="fill:none;stroke:#022733;stroke-width:1.2;stroke-linecap:round;stroke-linejoin:round;stroke-miterlimit:10;" d="
				M319.867,270.044c-0.766,12.318-0.833,24.68-0.202,37.005"/>
		</g>
		<g style="clip-path:url(#SVGID_00000023963539845752117030000012446037078405405114_);">
			<path style="fill:#008197;" d="M776.741,530.601c-30.996,14.883-70.405,31.21-105.427,27.718
				c-33.476-3.338-67.523-8.299-101.451-9.53c-34.219-1.242-68.641,0.429-102.652-4.38c-25.503-3.606-49.643-13.504-74.505-17.42
				c-25.135-3.958-48.665-7.448-68.487-25.441c-10.125-9.191-18.132-22.931-14.573-36.137c7.372-27.342,47.375-37.391,69.681-46.932
				c28.31-12.109,57.107-26.434,75.713-51.944c13.373-18.334,20.053-40.553,29.689-61.098c7.038-15.006,17.666-34.227,33.016-42.252
				c14.883-7.782,31.675-5.709,46.929-15.206c36.064-22.454,43.622-77.409,82.305-94.971c5.329-2.42,11.039-3.986,16.196-6.755
				c11.1-5.959,18.533-16.795,26.837-26.269c8.438-9.626,18.14-18.144,28.778-25.264c5.355-3.584,11.142-6.886,17.533-7.712
				c19.683-2.546,34.162,18.349,39.642,37.424c12.172,42.368,4.892,87.74,10.034,131.521
				c6.243,53.162,30.697,103.074,35.342,156.399c1.852,21.264,0.502,42.73-2.858,63.808c-1.654,10.378-3.903,20.954-9.6,29.785
				C801.466,517.44,789.075,524.679,776.741,530.601z"/>
			<g>
				
					<path style="opacity:0.31;fill:none;stroke:#9ED7DD;stroke-width:1.4;stroke-linecap:round;stroke-linejoin:round;stroke-miterlimit:10;" d="
					M496.813,301.635c4.028-11.728,12.262-21.963,22.855-28.409"/>
				
					<path style="opacity:0.31;fill:none;stroke:#9ED7DD;stroke-width:1.4;stroke-linecap:round;stroke-linejoin:round;stroke-miterlimit:10;" d="
					M529.882,268.388c3.556-1.333,7.111-2.667,10.667-4"/>
				
					<path style="opacity:0.31;fill:none;stroke:#9ED7DD;stroke-width:1.4;stroke-linecap:round;stroke-linejoin:round;stroke-miterlimit:10;" d="
					M517.291,281.809c4.149-3.635,9.206-6.224,14.58-7.465"/>
				
					<path style="opacity:0.31;fill:none;stroke:#9ED7DD;stroke-width:1.4;stroke-linecap:round;stroke-linejoin:round;stroke-miterlimit:10;" d="
					M565.286,257.87c12.814-6.089,22.992-17.509,27.572-30.937"/>
				
					<path style="opacity:0.31;fill:none;stroke:#9ED7DD;stroke-width:1.4;stroke-linecap:round;stroke-linejoin:round;stroke-miterlimit:10;" d="
					M602.425,217.001c1.434-3.298,3.278-6.418,5.475-9.265"/>
				
					<path style="opacity:0.31;fill:none;stroke:#9ED7DD;stroke-width:1.4;stroke-linecap:round;stroke-linejoin:round;stroke-miterlimit:10;" d="
					M614.069,197.473c9.92-17.778,26.38-31.809,45.505-38.789c6.552-2.392,13.823-4.26,18.25-9.65"/>
				
					<path style="opacity:0.31;fill:none;stroke:#9ED7DD;stroke-width:1.4;stroke-linecap:round;stroke-linejoin:round;stroke-miterlimit:10;" d="
					M634.507,183.004c4.846-3.924,9.963-7.515,15.301-10.737"/>
				
					<path style="opacity:0.31;fill:none;stroke:#9ED7DD;stroke-width:1.4;stroke-linecap:round;stroke-linejoin:round;stroke-miterlimit:10;" d="
					M685.907,139.748c2.266-2.202,4.723-4.208,7.333-5.989"/>
				
					<path style="opacity:0.31;fill:none;stroke:#9ED7DD;stroke-width:1.4;stroke-linecap:round;stroke-linejoin:round;stroke-miterlimit:10;" d="
					M703.316,119.896c6.33-7.755,12.848-15.674,21.47-20.762c8.622-5.087,19.924-6.843,28.58-1.814"/>
				
					<path style="opacity:0.31;fill:none;stroke:#9ED7DD;stroke-width:1.4;stroke-linecap:round;stroke-linejoin:round;stroke-miterlimit:10;" d="
					M702.132,132.131c3.491-3.842,6.981-7.684,10.472-11.526"/>
				
					<path style="opacity:0.31;fill:none;stroke:#9ED7DD;stroke-width:1.4;stroke-linecap:round;stroke-linejoin:round;stroke-miterlimit:10;" d="
					M465.503,369.198c3.368-6.76,6.736-13.52,10.103-20.281"/>
				
					<path style="opacity:0.31;fill:none;stroke:#9ED7DD;stroke-width:1.4;stroke-linecap:round;stroke-linejoin:round;stroke-miterlimit:10;" d="
					M480.742,361.129c2.264-5.947,4.731-11.818,7.395-17.597"/>
				
					<path style="opacity:0.31;fill:none;stroke:#9ED7DD;stroke-width:1.4;stroke-linecap:round;stroke-linejoin:round;stroke-miterlimit:10;" d="
					M492.029,336.051c0.56-2.807,1.577-5.523,2.997-8.009"/>
			</g>
		</g>
		<g style="clip-path:url(#SVGID_00000023963539845752117030000012446037078405405114_);">
			<path style="fill:#013A51;" d="M573.099,406.133c3.441-24.209,12.623-48.058,24.887-69.168
				c3.563,12.09,9.516,29.339,14.063,38.59c7.263-17.74,16.409-46.731,25.373-63.676c3.639,17.005,7.277,34.01,10.916,51.016
				c6.012-22.81,13.358-45.269,21.989-67.222c9.418,35.95,20.495,71.466,33.183,106.396"/>
			<path style="fill:#008197;" d="M625.85,336.556c2.015,1.87,4.03,3.741,6.045,5.611c0.352,0.327,0.735,0.732,0.676,1.209
				c-0.111,0.898-1.426,0.861-2.281,0.565c-3.978-1.377-7.957-2.755-11.935-4.132"/>
			<path style="fill:#008197;" d="M644.99,343.015c-3.353,3.783-6.706,7.567-10.059,11.35c4.415-1.851,8.711-3.986,12.853-6.387"/>
			<path style="fill:none;stroke:#022733;stroke-width:1.2;stroke-linecap:round;stroke-linejoin:round;stroke-miterlimit:10;" d="
				M632.729,391.687c1.884-26.177,3.279-52.39,4.184-78.619"/>
			<path style="fill:#008197;" d="M606.013,354.876c-4.022,0.723-7.921,2.123-11.484,4.123c5.116-0.294,10.295,0.567,15.041,2.501"
				/>
			<path style="fill:none;stroke:#022733;stroke-width:1.2;stroke-linecap:round;stroke-linejoin:round;stroke-miterlimit:10;" d="
				M594.867,367.083c0.867-9.8,1.924-19.583,3.17-29.342"/>
			<path style="fill:#008197;" d="M657.564,326.544c3.736,3.156,7.948,5.748,12.449,7.662c-2.695-5.245-6.153-10.097-10.231-14.356"
				/>
			<path style="fill:none;stroke:#022733;stroke-width:1.2;stroke-linecap:round;stroke-linejoin:round;stroke-miterlimit:10;" d="
				M668.151,375.063c0.757-26.004,1.513-52.008,2.27-78.012"/>
			<path style="fill:#008197;" d="M683.455,334.38c-5.443,2.801-10.546,6.259-15.165,10.276c5.857-1.342,11.661-2.918,17.392-4.723"
				/>
			<path style="fill:none;stroke:#022733;stroke-width:1.2;stroke-linecap:round;stroke-linejoin:round;stroke-miterlimit:10;" d="
				M629.865,333.736c2.131,2.522,4.262,5.043,6.393,7.565"/>
			<path style="fill:none;stroke:#022733;stroke-width:1.2;stroke-linecap:round;stroke-linejoin:round;stroke-miterlimit:10;" d="
				M668.53,338.369c3.453-3.277,7.305-6.133,11.443-8.486"/>
			<path style="fill:none;stroke:#022733;stroke-width:1.2;stroke-linecap:round;stroke-linejoin:round;stroke-miterlimit:10;" d="
				M594.797,355.539c3.11-1.599,6.304-3.034,9.565-4.299"/>
			<path style="fill:none;stroke:#022733;stroke-width:1.2;stroke-linecap:round;stroke-linejoin:round;stroke-miterlimit:10;" d="
				M619.928,356.349c4.683,5.542,9.366,11.084,14.049,16.626"/>
			<path style="fill:none;stroke:#022733;stroke-width:1.2;stroke-linecap:round;stroke-linejoin:round;stroke-miterlimit:10;" d="
				M667.917,356.43c4.838-4.053,10.189-7.492,15.885-10.209"/>
		</g>
		<g style="clip-path:url(#SVGID_00000023963539845752117030000012446037078405405114_);">
			<path style="fill:#037082;" d="M58.795,286.128c7.988-27.035,17.525-49.653,29.687-74.888c1.14,9.04,3.464,17.929,6.894,26.37
				c6.582-10.897,13.164-21.794,19.746-32.692c3.243,14.849,6.485,29.699,9.728,44.548c4.012-5.072,8.024-10.145,12.036-15.217
				c1.773,9.955,4.631,19.717,8.508,29.056c6.932-14.498,14.771-28.562,23.456-42.082c1.858,14.257,5.027,28.342,9.456,42.021
				c5.37-7.938,11.599-15.295,18.544-21.899c3.213,18.962,6.909,37.842,11.082,56.617"/>
			<path style="fill:#86C3CE;" d="M153.54,242.57c3.242,2.611,6.83,4.793,10.639,6.472c-2.572-4.312-5.144-8.624-7.716-12.936"/>
			<path style="fill:#86C3CE;" d="M175.038,250.015c-4.766,1.092-9.364,2.916-13.583,5.388c5.448,1.1,11.043,1.466,16.588,1.086"/>
			<path style="fill:#86C3CE;" d="M99.391,230.26c3.119,3.364,6.772,6.233,10.78,8.465c-1.652-5.605-4.151-10.96-7.387-15.826"/>
			<g>
				<path style="fill:none;stroke:#004E60;stroke-width:1.2;stroke-linecap:round;stroke-linejoin:round;stroke-miterlimit:10;" d="
					M159.458,274.608c2.26-17.31,5.228-34.528,8.893-51.596"/>
				<path style="fill:none;stroke:#004E60;stroke-width:1.2;stroke-linecap:round;stroke-linejoin:round;stroke-miterlimit:10;" d="
					M125.568,273.196c1.061-4.138,2.122-8.277,3.184-12.415c2.174-8.478,4.354-16.976,7.422-25.173"/>
				<path style="fill:none;stroke:#004E60;stroke-width:1.2;stroke-linecap:round;stroke-linejoin:round;stroke-miterlimit:10;" d="
					M105.982,262.628c3.099-18.511,6.036-37.049,8.809-55.611"/>
				<path style="fill:none;stroke:#004E60;stroke-width:1.2;stroke-linecap:round;stroke-linejoin:round;stroke-miterlimit:10;" d="
					M84.722,242.01c1.335-9.667,2.821-19.313,4.456-28.933"/>
				<path style="fill:none;stroke:#004E60;stroke-width:1.2;stroke-linecap:round;stroke-linejoin:round;stroke-miterlimit:10;" d="
					M189.445,272.523c3.23-10.478,5.916-21.125,8.044-31.881"/>
			</g>
			<path style="fill:none;stroke:#004E60;stroke-width:1.2;stroke-linecap:round;stroke-linejoin:round;stroke-miterlimit:10;" d="
				M160.618,235.011c1.476,2.348,2.952,4.697,4.428,7.045"/>
			<path style="fill:none;stroke:#004E60;stroke-width:1.2;stroke-linecap:round;stroke-linejoin:round;stroke-miterlimit:10;" d="
				M161.049,261.057c4.717-1.286,9.616-1.903,14.505-1.826"/>
			<path style="fill:none;stroke:#004E60;stroke-width:1.2;stroke-miterlimit:10;" d="M190.033,249.061
				c1.072,2.788,2.29,5.521,3.648,8.181"/>
			<path style="fill:none;stroke:#004E60;stroke-width:1.2;stroke-linecap:round;stroke-linejoin:round;stroke-miterlimit:10;" d="
				M106.281,221.925c1.89,3.394,3.781,6.789,5.671,10.183"/>
			<path style="fill:none;stroke:#004E60;stroke-width:1.2;stroke-linecap:round;stroke-linejoin:round;stroke-miterlimit:10;" d="
				M108.632,248.708c4.717-2.571,9.305-5.38,13.739-8.413"/>
			<path style="fill:none;stroke:#004E60;stroke-width:1.2;stroke-linecap:round;stroke-linejoin:round;stroke-miterlimit:10;" d="
				M130.63,253.218c2.936-1.462,5.872-2.924,8.808-4.386"/>
		</g>
		<g style="clip-path:url(#SVGID_00000023963539845752117030000012446037078405405114_);">
			<path style="fill:#015163;" d="M672.945,370.488c1.699-2.48,3.339-4.996,4.938-7.459c13.85-21.347,28.418-44.522,52.804-54.936
				c8.442-3.605,18.129-5.373,26.811-2.391c6.302,2.165,11.549,6.637,16.106,11.498c21.663,23.111,30.106,55.279,37.788,86.01
				c11,44,18.521,92.191,15.403,137.615c-0.56,8.157-1.148,16.446-4.164,24.132c-9.205,23.462-38.114,34.858-64.736,37.719
				c-16.096,1.73-32.349,1.337-48.536,0.942c-88.435-2.159-178.772-4.647-261.545-33.481c-47.481-16.54,72.55-151.54,90.331-170.472
				c12.399-13.202,26.3-26.44,43.936-30.561c25.37-5.93,29.039,11.785,45.81,21.856C646.648,402.222,663.27,384.609,672.945,370.488
				z"/>
			<g>
				<path style="fill:none;stroke:#03717C;stroke-linecap:round;stroke-linejoin:round;stroke-miterlimit:10;" d="M664.593,393.128
					c6.899-4.224,12.861-9.97,17.336-16.708"/>
				<path style="fill:none;stroke:#03717C;stroke-linecap:round;stroke-linejoin:round;stroke-miterlimit:10;" d="M686.083,369.489
					c1.45-2.904,3.44-5.537,5.838-7.725"/>
				<path style="fill:none;stroke:#03717C;stroke-linecap:round;stroke-linejoin:round;stroke-miterlimit:10;" d="M682.787,385.954
					c5.539-5.69,10.361-12.077,14.316-18.963"/>
				<path style="fill:none;stroke:#03717C;stroke-linecap:round;stroke-linejoin:round;stroke-miterlimit:10;" d="M702.917,347.256
					c6.674-12.247,16.133-22.967,27.454-31.115"/>
				<path style="fill:none;stroke:#03717C;stroke-linecap:round;stroke-linejoin:round;stroke-miterlimit:10;" d="M725.487,331.222
					c6.381-9.64,17.484-15.986,29.029-16.59c1.282-0.067,2.764,0.022,3.547,1.039"/>
				<path style="fill:none;stroke:#03717C;stroke-linecap:round;stroke-linejoin:round;stroke-miterlimit:10;" d="M644.558,400.53
					c3.554-0.248,7.108-0.495,10.661-0.743"/>
				<path style="fill:none;stroke:#03717C;stroke-linecap:round;stroke-linejoin:round;stroke-miterlimit:10;" d="M557.301,396.014
					c7.778-10.63,19.74-19.58,32.886-18.76"/>
				<path style="fill:none;stroke:#03717C;stroke-linecap:round;stroke-linejoin:round;stroke-miterlimit:10;" d="M599.199,380.207
					c2.304-0.209,4.681,0.957,5.926,2.906"/>
				<path style="fill:none;stroke:#03717C;stroke-linecap:round;stroke-linejoin:round;stroke-miterlimit:10;" d="M600.76,386.126
					c4.807,3.879,9.615,7.758,14.422,11.637"/>
			</g>
		</g>
		<g style="clip-path:url(#SVGID_00000023963539845752117030000012446037078405405114_);">
			<path style="fill:#3AA5A5;" d="M-33.264,116.511c3.004-2.006,7.057-2.865,12.478-2.158c18.209,2.375,31.279,12.344,46.013,22.4
				c3.669,2.504,7.446,5.119,9.777,8.9c2.339,3.794,2.991,8.4,5.045,12.355c3.601,6.937,11.025,11.069,15.462,17.504
				c5.364,7.779,4.968,16.969,7.662,25.627c2.498,8.03,6.864,15.362,10.63,22.991c7.689,15.575,17.446,30.393,32.354,39.909
				c21.899,13.978,49.181,13.326,74.007,10.35c11.055-1.325,22.881-2.46,33.561-5.489c11.396-3.232,22.714-10.09,34.964-6.978
				c2.955,0.751,5.729,2.07,8.482,3.381c13.597,6.478,26.464,8.593,38.519,18.663c11.616,9.704,20.903,22.057,29.662,34.299
				c14.163,19.676,26.778,41.351,46.557,55.369c12.382,8.776,26.908,14.021,41.522,18.112c28.972,8.109,59.101,12.071,89.184,11.726
				c-14.469,27.363-42.476,42.53-71.894,52.159c-24.373,7.977-48.945,15.999-74.414,19c-33.188,3.91-63.355-2.331-95.632-5.772
				c-37.061-3.952-80.358,7.743-117.859,9.702c-40.909,2.137-83.155,2.383-121.257-12.661c-22.084-8.72-43.008-23.455-52.941-45.022
				c-7.988-17.345-8.101-37.139-8.07-56.234c0.105-63.195,0.209-126.39,0.314-189.585
				C-39.109,157.622-46.745,125.514-33.264,116.511z"/>
			<g>
				<path style="fill:none;stroke:#037C73;stroke-width:1.2;stroke-linecap:round;stroke-linejoin:round;stroke-miterlimit:10;" d="
					M14.572,141.691c8.578,6.384,15.484,14.994,19.855,24.752"/>
				<path style="fill:none;stroke:#037C73;stroke-width:1.2;stroke-linecap:round;stroke-linejoin:round;stroke-miterlimit:10;" d="
					M39.116,173.765c1.151,2.649,2.302,5.299,3.452,7.948"/>
				<path style="fill:none;stroke:#037C73;stroke-width:1.2;stroke-linecap:round;stroke-linejoin:round;stroke-miterlimit:10;" d="
					M27.821,171.086c2.045,3.977,4.091,7.953,6.136,11.93"/>
				<path style="fill:none;stroke:#037C73;stroke-width:1.2;stroke-linecap:round;stroke-linejoin:round;stroke-miterlimit:10;" d="
					M49.74,202.449c5.697,13.337,13.05,25.967,21.834,37.507"/>
				<path style="fill:none;stroke:#037C73;stroke-width:1.2;stroke-linecap:round;stroke-linejoin:round;stroke-miterlimit:10;" d="
					M39.851,201.074c3.059,5.124,5.756,10.464,8.064,15.967"/>
				<path style="fill:none;stroke:#037C73;stroke-width:1.2;stroke-linecap:round;stroke-linejoin:round;stroke-miterlimit:10;" d="
					M78.754,251.58c8.589,12.47,21.452,21.937,35.912,26.432"/>
				<path style="fill:none;stroke:#037C73;stroke-width:1.2;stroke-linecap:round;stroke-linejoin:round;stroke-miterlimit:10;" d="
					M61.913,241.035c5.393,8.221,11.392,16.045,17.933,23.386"/>
				<path style="fill:none;stroke:#037C73;stroke-width:1.2;stroke-linecap:round;stroke-linejoin:round;stroke-miterlimit:10;" d="
					M129.197,280.477c3.284,0.695,6.675,0.878,10.015,0.539"/>
				<path style="fill:none;stroke:#037C73;stroke-width:1.2;stroke-linecap:round;stroke-linejoin:round;stroke-miterlimit:10;" d="
					M141.228,288.087c11.153,0.48,22.358-0.247,33.355-2.164"/>
				<path style="fill:none;stroke:#037C73;stroke-width:1.2;stroke-linecap:round;stroke-linejoin:round;stroke-miterlimit:10;" d="
					M219.212,278.374c26.071-6.261,54.951,0.598,75.423,17.913"/>
				<path style="fill:none;stroke:#037C73;stroke-width:1.2;stroke-linecap:round;stroke-linejoin:round;stroke-miterlimit:10;" d="
					M283.824,299.179c4.236,1.971,8.471,3.943,12.707,5.914"/>
				<path style="fill:none;stroke:#037C73;stroke-width:1.2;stroke-linecap:round;stroke-linejoin:round;stroke-miterlimit:10;" d="
					M195.881,281.09c3.591,0.132,7.205-0.393,10.61-1.541"/>
			</g>
		</g>
		<g style="clip-path:url(#SVGID_00000023963539845752117030000012446037078405405114_);">
			<path style="fill:#E39B23;" d="M415.403,147.828c1.757,1.344,3.764,2.434,5.914,3.22c7.608,2.782,16.974,1.369,23.092-3.485
				c14.887-11.811,4.164-34.014-15.434-34.501C409.54,112.579,401.522,137.216,415.403,147.828z"/>
			<path style="fill:none;stroke:#BF6717;stroke-linecap:round;stroke-linejoin:round;stroke-miterlimit:10;" d="M423.746,149.249
				c-7.41-2.512-12.54-10.518-11.728-18.299"/>
			<path style="fill:none;stroke:#BF6717;stroke-linecap:round;stroke-linejoin:round;stroke-miterlimit:10;" d="M414.318,134.035
				c-0.535-2.781-0.236-5.717,0.85-8.333"/>
			<path style="fill:none;stroke:#BF6717;stroke-linecap:round;stroke-linejoin:round;stroke-miterlimit:10;" d="M416.136,122.999
				c0.462-0.655,0.923-1.309,1.385-1.964"/>
			<path style="fill:none;stroke:#BF6717;stroke-linecap:round;stroke-linejoin:round;stroke-miterlimit:10;" d="M427.222,150.122
				c1.221-0.127,2.441-0.254,3.662-0.381"/>
			<path style="fill:none;stroke:#BF6717;stroke-linecap:round;stroke-linejoin:round;stroke-miterlimit:10;" d="M438.911,118.921
				c3.961,1.598,6.955,5.173,8.322,9.22c1.367,4.047,1.208,8.508,0.065,12.624"/>
		</g>
		<g style="clip-path:url(#SVGID_00000023963539845752117030000012446037078405405114_);">
			<g>
				<g>
					<path style="fill:#AF6357;" d="M482.735,410.885c-9.021-11.486-18.043-22.972-27.064-34.459
						c-4.878-6.211-10.447-12.863-18.742-14.77c-1.904-0.438-3.963-0.63-5.55-1.655c-1.336-0.863-2.149-2.202-2.91-3.498
						c-6.803-11.57-13.041-23.398-18.693-35.44c-3.444,8.889-7.774,18.866-11.218,27.754c-2.75,7.097-5.535,14.632-3.721,21.959
						c1.625,6.564,6.779,12.047,12.601,16.386C426.639,401.473,457.874,407.532,482.735,410.885z"/>
					<path style="fill:none;stroke:#7A3530;stroke-linecap:round;stroke-linejoin:round;stroke-miterlimit:10;" d="M420.658,353.49
						c2.571,3.513,5.283,7.15,9.16,9.129c1.604,0.819,3.351,1.321,4.999,2.049c2.983,1.318,5.629,3.39,7.624,5.969"/>
					<path style="fill:none;stroke:#7A3530;stroke-linecap:round;stroke-linejoin:round;stroke-miterlimit:10;" d="M412.093,349.026
						c2.882,4.35,6.176,8.427,9.825,12.157"/>
					<path style="fill:none;stroke:#7A3530;stroke-linecap:round;stroke-linejoin:round;stroke-miterlimit:10;" d="M447.061,376.044
						c1.65,1.848,3.3,3.696,4.95,5.544"/>
					<path style="fill:none;stroke:#7A3530;stroke-linecap:round;stroke-linejoin:round;stroke-miterlimit:10;" d="M441.665,377.45
						c3.004,3.336,6.261,6.443,9.734,9.287"/>
				</g>
				<g>
					<path style="fill:#AF6357;" d="M548.377,410.555c5.959,9.333,14.472,28.274,30.619,37.264c2.888,1.608,5.991,2.922,8.725,4.727
						c3.123,2.062,5.678,4.706,8.183,7.343c29.58,31.137,56.112,64.521,79.208,99.658c-8.852,10.18-25.202,16.416-39.597,14.52
						c-14.396-1.896-27.368-8.751-38.748-16.747C541.453,518.455,524.828,469.333,548.377,410.555z"/>
					<g>
						<path style="fill:none;stroke:#7A3530;stroke-linecap:round;stroke-linejoin:round;stroke-miterlimit:10;" d="
							M556.647,435.454c4.48,6.761,9.285,13.817,16.539,17.446c2.353,1.177,4.889,1.949,7.272,3.063
							c8.284,3.87,14.081,11.49,19.537,18.827"/>
						<path style="fill:none;stroke:#7A3530;stroke-linecap:round;stroke-linejoin:round;stroke-miterlimit:10;" d="
							M593.531,473.566c3.097,4.927,6.816,9.462,11.041,13.464"/>
						<path style="fill:none;stroke:#7A3530;stroke-linecap:round;stroke-linejoin:round;stroke-miterlimit:10;" d="
							M605.083,479.025c1.157,1.342,2.313,2.684,3.47,4.026"/>
						<path style="fill:none;stroke:#7A3530;stroke-linecap:round;stroke-linejoin:round;stroke-miterlimit:10;" d="
							M556.012,443.585c1.659,2.006,3.319,4.012,4.978,6.018"/>
						<path style="fill:none;stroke:#7A3530;stroke-linecap:round;stroke-linejoin:round;stroke-miterlimit:10;" d="
							M614.581,489.026c1.647,1.851,3.294,3.701,4.942,5.552"/>
					</g>
				</g>
				<path style="fill:#002F3E;" d="M616.599,505.705c-20.421,1.742-42.056-3.34-56.923-15.797
					c-12.305-10.311-20.462-27.437-16.561-42.469c3.096-11.933,12.745-18.879,7.664-32.849c-2.664-7.325-9.505-13.008-17.195-16.649
					c-16.146-7.645-35.473-7.262-53.779-6.446c-18.306,0.816-37.478,1.735-54.111-5.051c-16.633-6.785-29.306-24.136-22.594-39.163
					c2.985-6.683,9.464-12.581,8.958-19.749c-0.793-11.245-17.074-15.528-29.863-15.555c-68.793-0.143-131.313,36.38-199.704,42.925
					c-16.543,1.583-35.318,0.665-46.765-9.976c-5.207-4.84-8.608-11.473-15.315-14.563c-6.24-2.876-13.782-1.939-20.683-0.703
					c-51.194,9.162-99.383,31.01-137.601,62.387c7.676,44.086,2.197,91.198-0.022,135.757c198.731,4.52,397.366,12.3,595.769,23.333
					c15.113,0.84,32.523,0.915,42.545-9.087C606.236,536.246,610.783,511.51,616.599,505.705z"/>
			</g>
			<g>
				<g>
					<g>
						<path style="fill:#00726A;" d="M76.827,397.302c-0.472-1.074-0.903-2.21-0.856-3.382c0.047-1.172,0.684-2.394,1.785-2.797
							c1.083-0.397,2.282,0.069,3.291,0.627c4.029,2.227,7.049,5.974,9.164,10.063c2.172,4.2,7.148,14.878-1.124,10.819
							C83.699,409.987,79.141,402.561,76.827,397.302z"/>
						<path style="fill:#00726A;" d="M109.497,396.302c0.473-1.074,0.903-2.21,0.856-3.382c-0.047-1.172-0.683-2.394-1.785-2.797
							c-1.083-0.397-2.282,0.069-3.291,0.627c-4.029,2.227-7.049,5.974-9.164,10.063c-2.172,4.2-7.148,14.878,1.124,10.819
							C102.625,408.987,107.183,401.561,109.497,396.302z"/>
						<path style="fill:#00726A;" d="M88.872,395.935c-0.786-5.674-0.239-11.906,3.364-16.359c0.345-0.427,0.742-0.85,1.265-1.016
							c0.966-0.307,1.964,0.363,2.665,1.094c2.293,2.392,3.328,5.777,3.445,9.088c0.117,3.311-0.605,6.591-1.421,9.802
							c-0.586,2.304-1.187,15.602-4.975,14.843C90.287,412.802,89.227,398.493,88.872,395.935z"/>
						<path style="fill:none;stroke:#00726A;stroke-linecap:round;stroke-linejoin:round;stroke-miterlimit:10;" d="M73.52,400.083
							c4.528,4.612,9.788,8.503,15.522,11.485"/>
						<path style="fill:none;stroke:#00726A;stroke-linecap:round;stroke-linejoin:round;stroke-miterlimit:10;" d="M84.212,384.162
							c1.495,5.752,2.99,11.504,4.486,17.255c0.125,0.482,0.731,1.053,0.97,0.616"/>
						<path style="fill:none;stroke:#00726A;stroke-linecap:round;stroke-linejoin:round;stroke-miterlimit:10;" d="M97.65,402.582
							c1.577-5.857,3.154-11.715,4.731-17.572"/>
						<path style="fill:none;stroke:#005B52;stroke-linecap:round;stroke-linejoin:round;stroke-miterlimit:10;" d="M93.87,412.052
							c0.178-10.833,0.356-21.666,0.534-32.499"/>
						<path style="fill:none;stroke:#005B52;stroke-linecap:round;stroke-linejoin:round;stroke-miterlimit:10;" d="M77.069,393.028
							c6.674,5.084,12.722,10.989,17.964,17.54"/>
						<path style="fill:none;stroke:#005B52;stroke-linecap:round;stroke-linejoin:round;stroke-miterlimit:10;" d="M96.565,401.054
							c-0.207-2.506-0.047-5.041,0.475-7.501"/>
						<path style="fill:none;stroke:#005B52;stroke-linecap:round;stroke-linejoin:round;stroke-miterlimit:10;" d="M94.104,411.602
							c5.225-6.198,10.041-12.741,14.405-19.572"/>
					</g>
					<g>
						<path style="fill:#00726A;" d="M323.113,459.242c-1.784-3.885-2.774-8.257-2.023-12.465c0.326-1.827,1.069-3.717,2.621-4.736
							c1.811-1.189,4.313-0.849,6.134,0.323c1.822,1.172,3.085,3.028,4.159,4.909c2.736,4.793,13.347,25.594,8.045,30.281
							C335.445,483.391,325.188,463.76,323.113,459.242z"/>
						<path style="fill:#00726A;" d="M340.799,434.935c1.165-2.46,3.022-5.03,5.733-5.277c2.069-0.189,4.057,1.122,5.202,2.855
							c1.146,1.733,1.59,3.83,1.884,5.886c0.85,5.942-0.713,40.992-10.736,40.655C332.502,478.706,338.4,440,340.799,434.935z"/>
						<path style="fill:#00726A;" d="M361.654,453.997c1.446-0.93,3.025-1.75,4.736-1.918c1.711-0.168,3.584,0.433,4.551,1.855
							c0.951,1.398,0.848,3.31,0.153,4.851c-0.695,1.541-1.897,2.787-3.101,3.973c-2.603,2.564-22.402,21.477-24.778,14.963
							c-1.095-3,7.17-11.703,8.738-14.009C354.544,459.902,357.765,456.5,361.654,453.997z"/>
						<path style="fill:none;stroke:#005B52;stroke-linecap:round;stroke-linejoin:round;stroke-miterlimit:10;" d="M342.07,477.369
							c2.077-15.264,3.699-30.59,4.863-45.951"/>
						<path style="fill:none;stroke:#005B52;stroke-linecap:round;stroke-linejoin:round;stroke-miterlimit:10;" d="
							M323.631,442.681c2.834,5.694,5.667,11.388,8.501,17.082"/>
						<path style="fill:none;stroke:#005B52;stroke-linecap:round;stroke-linejoin:round;stroke-miterlimit:10;" d="M333.088,462.64
							c1.972,4.945,4.467,9.681,7.43,14.103"/>
						<path style="fill:none;stroke:#005B52;stroke-linecap:round;stroke-linejoin:round;stroke-miterlimit:10;" d="
							M344.888,477.395c8.219-7.322,16.048-15.082,23.442-23.236"/>
						<path style="fill:none;stroke:#005B52;stroke-linecap:round;stroke-linejoin:round;stroke-miterlimit:10;" d="
							M321.548,461.389c3.661,6.484,8.602,12.243,14.454,16.847"/>
						<path style="fill:none;stroke:#005B52;stroke-linecap:round;stroke-linejoin:round;stroke-miterlimit:10;" d="
							M322.931,471.014c1.957,2.361,4.015,4.638,6.166,6.824"/>
						<path style="fill:none;stroke:#005B52;stroke-linecap:round;stroke-linejoin:round;stroke-miterlimit:10;" d="
							M350.962,464.422c2.603-6.233,4.981-12.56,7.127-18.964"/>
						<path style="fill:none;stroke:#005B52;stroke-linecap:round;stroke-linejoin:round;stroke-miterlimit:10;" d="
							M352.588,478.755c1.222-1.445,2.444-2.889,3.666-4.334"/>
						<path style="fill:none;stroke:#005B52;stroke-linecap:round;stroke-linejoin:round;stroke-miterlimit:10;" d="
							M358.791,479.665c0.814-1.311,1.628-2.621,2.442-3.932"/>
					</g>
					<g>
						<path style="fill:#00A474;" d="M430.789,447.569c1.956-5.689,4.019-11.457,7.622-16.274c3.603-4.818,9.034-8.626,15.047-8.835
							c5.976-0.208,11.693,3.225,15.279,8.01c3.586,4.785,5.267,10.761,5.933,16.703"/>
						
							<path style="fill:none;stroke:#025B52;stroke-width:1.2;stroke-linecap:round;stroke-linejoin:round;stroke-miterlimit:10;" d="
							M436.86,431.623c1.725,4.812,3.45,9.625,5.175,14.437"/>
						
							<path style="fill:none;stroke:#025B52;stroke-width:1.2;stroke-linecap:round;stroke-linejoin:round;stroke-miterlimit:10;" d="
							M442.278,424.005c1.59,7.268,3.387,14.491,5.389,21.657"/>
						
							<path style="fill:none;stroke:#025B52;stroke-width:1.2;stroke-linecap:round;stroke-linejoin:round;stroke-miterlimit:10;" d="
							M451.618,420.549c0.789,8.878,1.858,17.73,3.203,26.541"/>
						
							<path style="fill:none;stroke:#025B52;stroke-width:1.2;stroke-linecap:round;stroke-linejoin:round;stroke-miterlimit:10;" d="
							M456.955,431.563c0.158,1.834,0.315,3.668,0.473,5.502"/>
						
							<path style="fill:none;stroke:#025B52;stroke-width:1.2;stroke-linecap:round;stroke-linejoin:round;stroke-miterlimit:10;" d="
							M463.034,446.054c0.61-6.193,1.484-12.36,2.618-18.479"/>
						
							<path style="fill:none;stroke:#025B52;stroke-width:1.2;stroke-linecap:round;stroke-linejoin:round;stroke-miterlimit:10;" d="
							M475.501,440.562c0.295,2.006,0.59,4.011,0.885,6.017"/>
						
							<path style="fill:none;stroke:#025B52;stroke-width:1.2;stroke-linecap:round;stroke-linejoin:round;stroke-miterlimit:10;" d="
							M480.051,437.555c0.409,3.178,0.817,6.357,1.226,9.535"/>
						
							<path style="fill:none;stroke:#025B52;stroke-width:1.2;stroke-linecap:round;stroke-linejoin:round;stroke-miterlimit:10;" d="
							M427.168,440.542c0.233,2.177,0.466,4.355,0.699,6.532"/>
						
							<path style="fill:none;stroke:#025B52;stroke-width:1.2;stroke-linecap:round;stroke-linejoin:round;stroke-miterlimit:10;" d="
							M419.24,436.494c1.232,3.866,2.464,7.731,3.696,11.597"/>
					</g>
					<g>
						<path style="fill:#00A474;" d="M167.927,416.13c2.918-11.435,11.557-20.874,21.952-23.983
							c10.395-3.11,22.173,0.221,29.93,8.463c4.347,4.619,7.378,10.495,10.736,16.027"/>
						
							<path style="fill:none;stroke:#025B52;stroke-width:1.2;stroke-linecap:round;stroke-linejoin:round;stroke-miterlimit:10;" d="
							M193.837,416.948c-3.874-10.482-7.459-21.072-10.749-31.752"/>
						
							<path style="fill:none;stroke:#025B52;stroke-width:1.2;stroke-linecap:round;stroke-linejoin:round;stroke-miterlimit:10;" d="
							M186.542,410.723c-0.522-2.408-1.306-4.759-2.334-6.998"/>
						
							<path style="fill:none;stroke:#025B52;stroke-width:1.2;stroke-linecap:round;stroke-linejoin:round;stroke-miterlimit:10;" d="
							M173.264,400.693c2.727,4.696,5.454,9.392,8.181,14.088"/>
						
							<path style="fill:none;stroke:#025B52;stroke-width:1.2;stroke-linecap:round;stroke-linejoin:round;stroke-miterlimit:10;" d="
							M199.784,416.717c0.411-8.327,0.353-16.678-0.174-24.999"/>
						
							<path style="fill:none;stroke:#025B52;stroke-width:1.2;stroke-linecap:round;stroke-linejoin:round;stroke-miterlimit:10;" d="
							M206.45,416.772c1.583-7.388,3.77-14.645,6.533-21.677"/>
						
							<path style="fill:none;stroke:#025B52;stroke-width:1.2;stroke-linecap:round;stroke-linejoin:round;stroke-miterlimit:10;" d="
							M212.747,410.362c0.66-3.362,1.854-6.618,3.523-9.609"/>
						
							<path style="fill:none;stroke:#025B52;stroke-width:1.2;stroke-linecap:round;stroke-linejoin:round;stroke-miterlimit:10;" d="
							M216.953,416.089c2.158-4.593,4.565-9.068,7.208-13.4"/>
						
							<path style="fill:none;stroke:#025B52;stroke-width:1.2;stroke-linecap:round;stroke-linejoin:round;stroke-miterlimit:10;" d="
							M232.021,409.556c0.082,1.872,0.374,3.735,0.869,5.542"/>
						
							<path style="fill:none;stroke:#025B52;stroke-width:1.2;stroke-linecap:round;stroke-linejoin:round;stroke-miterlimit:10;" d="
							M237.079,407.075c0.206,2.938,0.411,5.875,0.617,8.813c0.022,0.319,0.12,0.723,0.437,0.766
							c0.317,0.042,0.209-0.652-0.006-0.415"/>
						
							<path style="fill:none;stroke:#025B52;stroke-width:1.2;stroke-linecap:round;stroke-linejoin:round;stroke-miterlimit:10;" d="
							M163.451,409.077c0.473,2.123,0.681,4.305,0.616,6.479"/>
						
							<path style="fill:none;stroke:#025B52;stroke-width:1.2;stroke-linecap:round;stroke-linejoin:round;stroke-miterlimit:10;" d="
							M156.833,405.61c0.849,3.329,1.698,6.659,2.547,9.988"/>
					</g>
				</g>
				<g>
					<g>
						<path style="fill:#00726A;" d="M261.827,480.507c-2.58-7.732-9.951-14.119-18.099-13.912
							c-5.834,0.148-12.203,3.34-17.112,0.184c-3.183-2.047-4.38-6.035-6.513-9.16c-5.931-8.686-18.887-9.739-28.557-5.603
							c-9.67,4.136-17.053,12.111-24.86,19.159c-1.071,0.967-2.197,1.944-3.57,2.384c-4.326,1.384-8.127-2.875-11.927-5.362
							c-8.246-5.395-19.921-2.314-26.948,4.595c-9.21,9.054-24.553,40.824-16.192,52.764c4.407,6.293,6.232,8.51,13.5,11
							c14.774,5.062,33.99,9.177,49.5,11c25.693,3.021,56.078-0.089,78.193-15.864C263.556,521.481,267.304,496.918,261.827,480.507
							z"/>
						<g>
							
								<path style="fill:none;stroke:#024940;stroke-width:1.2;stroke-linecap:round;stroke-linejoin:round;stroke-miterlimit:10;" d="
								M201.899,473.395c1.216-3.037,2.217-6.16,2.994-9.338"/>
							
								<path style="fill:none;stroke:#024940;stroke-width:1.2;stroke-linecap:round;stroke-linejoin:round;stroke-miterlimit:10;" d="
								M185.517,479.709c1.111-2.814,2.048-5.697,2.804-8.627"/>
							
								<path style="fill:none;stroke:#024940;stroke-width:1.2;stroke-linecap:round;stroke-linejoin:round;stroke-miterlimit:10;" d="
								M168.244,486.733c0.459-1.217,0.918-2.434,1.377-3.65"/>
							
								<path style="fill:none;stroke:#024940;stroke-width:1.2;stroke-linecap:round;stroke-linejoin:round;stroke-miterlimit:10;" d="
								M150.903,493.064c0.562-1.331,1.124-2.661,1.686-3.992"/>
							
								<path style="fill:none;stroke:#024940;stroke-width:1.2;stroke-linecap:round;stroke-linejoin:round;stroke-miterlimit:10;" d="
								M184.243,464.732c0.762-2.117,1.524-4.233,2.286-6.35"/>
							
								<path style="fill:none;stroke:#024940;stroke-width:1.2;stroke-linecap:round;stroke-linejoin:round;stroke-miterlimit:10;" d="
								M213.513,480.373c0.98-2.231,1.959-4.462,2.939-6.694"/>
							
								<path style="fill:none;stroke:#024940;stroke-width:1.2;stroke-linecap:round;stroke-linejoin:round;stroke-miterlimit:10;" d="
								M198.926,495.731c0.487-2.414,1.265-4.769,2.314-6.997"/>
							
								<path style="fill:none;stroke:#024940;stroke-width:1.2;stroke-linecap:round;stroke-linejoin:round;stroke-miterlimit:10;" d="
								M230.52,476.713c0.448-1.443,0.895-2.887,1.343-4.33"/>
							
								<path style="fill:none;stroke:#024940;stroke-width:1.2;stroke-linecap:round;stroke-linejoin:round;stroke-miterlimit:10;" d="
								M216.745,502.337c1.121-2.996,2.241-5.993,3.362-8.989"/>
							
								<path style="fill:none;stroke:#024940;stroke-width:1.2;stroke-linecap:round;stroke-linejoin:round;stroke-miterlimit:10;" d="
								M227.54,493.054c0.204-1.398,0.666-2.758,1.355-3.991"/>
							
								<path style="fill:none;stroke:#024940;stroke-width:1.2;stroke-linecap:round;stroke-linejoin:round;stroke-miterlimit:10;" d="
								M243.569,485.062c0.849-2.458,1.699-4.916,2.548-7.374"/>
							
								<path style="fill:none;stroke:#024940;stroke-width:1.2;stroke-linecap:round;stroke-linejoin:round;stroke-miterlimit:10;" d="
								M251.539,495.719c0.667-2.111,1.335-4.222,2.002-6.333"/>
						</g>
					</g>
					<g>
						<g>
							
								<path style="fill:none;stroke:#025B52;stroke-width:1.2;stroke-linecap:round;stroke-linejoin:round;stroke-miterlimit:10;" d="
								M32.795,456.365c3.684-13.816,6.557-27.848,8.598-41.999"/>
							<g>
								<path style="fill:#FFFFFF;" d="M39.548,407.954c-1.116-3.589-0.171-7.515,1.386-10.936c0.781-1.717,1.75-3.408,3.223-4.586
									c1.473-1.178,3.543-1.756,5.295-1.056c1.681,0.672,2.758,2.366,3.268,4.103c1.363,4.637-0.704,9.786-4.189,13.135
									c-1.369,1.316-3.09,2.46-4.989,2.432c-1.899-0.028-3.834-1.686-3.543-3.563"/>
								<path style="fill:#FFFFFF;" d="M43.647,406.305c3.342-1.72,7.372-1.467,11.011-0.526c1.826,0.472,3.66,1.135,5.075,2.382
									c1.415,1.247,2.342,3.186,1.956,5.032c-0.371,1.772-1.853,3.125-3.476,3.928c-4.331,2.144-9.761,0.998-13.661-1.855
									c-1.533-1.121-2.957-2.618-3.258-4.493c-0.3-1.875,0.998-4.068,2.897-4.106"/>
								<path style="fill:#FFFFFF;" d="M45.707,409.222c3.546,1.246,6.133,4.347,7.949,7.638c0.912,1.651,1.691,3.438,1.757,5.324
									s-0.705,3.891-2.312,4.879c-1.542,0.948-3.544,0.801-5.242,0.175c-4.534-1.673-7.433-6.405-8.041-11.199
									c-0.239-1.884-0.13-3.947,1.025-5.454c1.155-1.507,3.641-2.07,4.973-0.717"/>
								<path style="fill:#FFFFFF;" d="M26.681,398.298c3.664-0.836,7.506,0.41,10.797,2.226c1.652,0.911,3.263,2.008,4.324,3.568
									c1.061,1.56,1.478,3.668,0.645,5.361c-0.799,1.624-2.572,2.567-4.343,2.942c-4.728,1.001-9.703-1.458-12.772-5.191
									c-1.206-1.467-2.214-3.271-2.039-5.161c0.175-1.891,1.977-3.692,3.826-3.257"/>
								<path style="fill:#FFFFFF;" d="M29.308,416.635c-1.261,2.682-2.118,6.336,0.159,8.234c0.961,0.801,2.274,1.047,3.525,1.044
									c4.248-0.01,8.356-2.809,9.921-6.758c1.319-3.329,1.014-9.984-3.143-11.345C34.84,406.196,30.969,413.1,29.308,416.635z"/>
								<path style="fill:#E39B23;" d="M43.697,405.926c-1.338,0.519-2.702,1.156-3.583,2.289c-1.311,1.685-1.167,4.321,0.299,5.873
									c1.466,1.552,4.066,1.853,5.864,0.702c1.798-1.151,2.615-3.614,1.889-5.621c-0.726-2.007-2.905-3.374-5.031-3.184"/>
							</g>
						</g>
						<g>
							
								<path style="fill:none;stroke:#025B52;stroke-width:1.2;stroke-linecap:round;stroke-linejoin:round;stroke-miterlimit:10;" d="
								M97.016,452.79c3.259-6.371,6.517-12.743,9.776-19.115"/>
							<g>
								<path style="fill:#FFFFFF;" d="M115.13,429.302c0.977,0.397,2.05,1.264,1.81,2.593c-0.195,1.081-1.164,1.765-2.03,2.116
									c-2.044,0.829-8.171,1.073-8.17-2.568C106.741,426.728,113.532,428.652,115.13,429.302z"/>
								<path style="fill:#FFFFFF;" d="M104.458,430.294c0.94-0.477,2.298-0.719,3.145,0.332c0.689,0.856,0.57,2.036,0.268,2.92
									c-0.714,2.087-4.545,6.874-7.294,4.488C97.015,434.943,102.92,431.075,104.458,430.294z"/>
								<path style="fill:#FFFFFF;" d="M105.331,425.102c-0.916-0.506-1.932-0.879-2.978-0.875c-1.046,0.004-2.124,0.429-2.746,1.27
									c-0.825,1.116-0.67,2.757,0.12,3.899c0.789,1.142,2.092,1.839,3.43,2.209C108.998,433.222,110.196,427.789,105.331,425.102z
									"/>
								<path style="fill:#FFFFFF;" d="M112.916,436.842c0.142,1.052-0.011,2.297-0.899,2.879c-1.162,0.762-2.723-0.119-3.604-1.192
									c-1.284-1.564-4.397-7.042-1.111-7.669C110.341,430.279,112.596,434.484,112.916,436.842z"/>
								<path style="fill:#FFFFFF;" d="M110.129,430.111c-0.856,0.628-2.023,1.088-2.958,0.586
									c-1.224-0.657-1.197-2.449-0.675-3.736c0.76-1.875,4.085-7.227,6.206-4.64C114.664,424.714,112.048,428.704,110.129,430.111
									z"/>
								<path style="fill:#E39B23;" d="M107.293,429.671c-1.137,0.194-2.03,1.361-1.877,2.504c0.153,1.143,1.367,2.041,2.498,1.813
									c0.729-0.147,1.326-0.681,1.759-1.286C110.784,431.153,108.888,429.399,107.293,429.671z"/>
							</g>
						</g>
						<g>
							
								<path style="fill:none;stroke:#025B52;stroke-width:1.2;stroke-linecap:round;stroke-linejoin:round;stroke-miterlimit:10;" d="
								M229.702,467.83c2.824-4.009,5.421-8.179,7.772-12.482"/>
							<g>
								<path style="fill:#FFFFFF;" d="M242.189,457.822c0.085,1.051-0.206,2.4-1.5,2.784c-1.053,0.313-2.1-0.245-2.803-0.859
									c-1.661-1.452-4.638-6.811-1.387-8.451C240.71,449.172,242.05,456.103,242.189,457.822z"/>
								<path style="fill:#FFFFFF;" d="M236.497,448.741c0.849,0.624,1.678,1.728,1.12,2.957c-0.454,1-1.561,1.426-2.486,1.554
									c-2.185,0.303-8.185-0.961-7.292-4.491C228.994,444.189,235.107,447.719,236.497,448.741z"/>
								<path style="fill:#FFFFFF;" d="M241.526,447.182c0.039-1.045-0.086-2.121-0.56-3.053c-0.475-0.932-1.34-1.703-2.371-1.88
									c-1.368-0.234-2.763,0.644-3.427,1.863c-0.664,1.219-0.699,2.696-0.427,4.057
									C235.928,454.113,241.318,452.736,241.526,447.182z"/>
								<path style="fill:#FFFFFF;" d="M234.46,459.241c-0.875,0.601-2.055,1.025-2.975,0.494c-1.203-0.694-1.12-2.484-0.559-3.755
									c0.818-1.851,4.307-7.097,6.346-4.446C239.16,453.986,236.422,457.894,234.46,459.241z"/>
								<path style="fill:#FFFFFF;" d="M239.215,453.722c-0.946-0.482-1.882-1.316-1.856-2.378c0.035-1.389,1.647-2.171,3.032-2.285
									c2.016-0.166,8.292,0.392,6.938,3.451C246.077,455.34,241.335,454.801,239.215,453.722z"/>
								<path style="fill:#E39B23;" d="M238.331,450.991c-0.685-0.928-2.13-1.199-3.081-0.548c-0.951,0.652-1.206,2.14-0.493,3.046
									c0.46,0.585,1.205,0.877,1.94,0.992C238.58,454.775,239.292,452.293,238.331,450.991z"/>
							</g>
						</g>
						<g>
							
								<path style="fill:none;stroke:#025B52;stroke-width:1.2;stroke-linecap:round;stroke-linejoin:round;stroke-miterlimit:10;" d="
								M159.428,473.724c-0.105-5.889-0.21-11.778-0.315-17.667"/>
							<g>
								<path style="fill:#FFFFFF;" d="M158.829,435.582c0.892-1.455,2.559-2.94,4.618-2.207c1.675,0.596,2.512,2.324,2.844,3.799
									c0.785,3.482-0.439,13.329-6.253,12.369C152.507,448.3,157.37,437.962,158.829,435.582z"/>
								<path style="fill:#FFFFFF;" d="M157.6,452.885c-0.514-1.627-0.543-3.86,1.359-4.934c1.548-0.874,3.402-0.373,4.733,0.342
									c3.144,1.69,9.779,9.068,5.244,12.83C163.062,465.995,158.441,455.546,157.6,452.885z"/>
								<path style="fill:#FFFFFF;" d="M149.54,450.122c-1.049,1.329-1.913,2.853-2.182,4.525s0.125,3.505,1.304,4.72
									c1.564,1.612,4.226,1.796,6.257,0.837c2.031-0.959,3.487-2.856,4.431-4.895C163.471,446.407,155.113,443.061,149.54,450.122
									z"/>
								<path style="fill:#FFFFFF;" d="M170.285,441.105c1.718,0.05,3.664,0.622,4.36,2.194c0.91,2.056-0.907,4.316-2.854,5.441
									c-2.835,1.639-12.403,5.165-12.538-0.247C159.127,443.487,166.436,440.993,170.285,441.105z"/>
								<path style="fill:#FFFFFF;" d="M158.802,443.78c0.777,1.533,1.204,3.517,0.156,4.878c-1.371,1.782-4.225,1.265-6.144,0.093
									c-2.794-1.708-10.463-8.427-5.774-11.133C151.379,435.116,157.062,440.346,158.802,443.78z"/>
								<path style="fill:#E39B23;" d="M157.352,448.193c0.009,1.866,1.638,3.6,3.504,3.657c1.865,0.056,3.619-1.645,3.552-3.51
									c-0.043-1.203-0.739-2.297-1.59-3.148C160.639,443.01,157.339,445.574,157.352,448.193z"/>
							</g>
						</g>
					</g>
					<g>
						<path style="fill:#00A474;" d="M-33.648,497.164c-6.427-21.651,2.218-46.07,18.544-61.676
							c8.085-7.729,18.73-13.808,29.881-12.937c11.151,0.871,21.876,10.869,20.4,21.956c10.102-8.159,22.287-14.942,35.263-14.452
							c12.976,0.49,26.177,10.562,26.249,23.547c13.083-7.248,31.046-4.062,40.838,7.244c9.792,11.305,10.38,29.54,1.338,41.454
							c-9.121,12.018-11.187,23.554-23.893,31.689c-12.706,8.135-27.62,12.117-42.479,14.73c-23.317,4.1-48.061,4.964-69.946-4.065
							C-19.338,535.624-26.91,519.86-33.648,497.164z"/>
						<g>
							
								<path style="fill:none;stroke:#025B52;stroke-width:1.2;stroke-linecap:round;stroke-linejoin:round;stroke-miterlimit:10;" d="
								M9.549,458.055c0-3.5,0-7,0-10.5"/>
							
								<path style="fill:none;stroke:#025B52;stroke-width:1.2;stroke-linecap:round;stroke-linejoin:round;stroke-miterlimit:10;" d="
								M25.676,469.094c0.979-3.173,1.958-6.346,2.937-9.52"/>
							
								<path style="fill:none;stroke:#025B52;stroke-width:1.2;stroke-linecap:round;stroke-linejoin:round;stroke-miterlimit:10;" d="
								M59.5,455.54c1.016-3.328,2.032-6.657,3.048-9.985"/>
							
								<path style="fill:none;stroke:#025B52;stroke-width:1.2;stroke-linecap:round;stroke-linejoin:round;stroke-miterlimit:10;" d="
								M47.14,479.068c0.323-2.335,0.647-4.669,0.97-7.004"/>
							
								<path style="fill:none;stroke:#025B52;stroke-width:1.2;stroke-linecap:round;stroke-linejoin:round;stroke-miterlimit:10;" d="
								M11.138,492.582c0.649-2.172,1.298-4.344,1.947-6.516"/>
							
								<path style="fill:none;stroke:#025B52;stroke-width:1.2;stroke-linecap:round;stroke-linejoin:round;stroke-miterlimit:10;" d="
								M80.529,464.046c1.343-2.829,2.687-5.657,4.03-8.486"/>
							
								<path style="fill:none;stroke:#025B52;stroke-width:1.2;stroke-linecap:round;stroke-linejoin:round;stroke-miterlimit:10;" d="
								M71.638,492.1c1.948-3.859,3.897-7.719,5.845-11.578"/>
							
								<path style="fill:none;stroke:#025B52;stroke-width:1.2;stroke-linecap:round;stroke-linejoin:round;stroke-miterlimit:10;" d="
								M89.648,482.116c3.395-5.512,6.946-10.927,10.649-16.237"/>
							
								<path style="fill:none;stroke:#025B52;stroke-width:1.2;stroke-linecap:round;stroke-linejoin:round;stroke-miterlimit:10;" d="
								M115.533,467.045c1.35-1.988,2.701-3.977,4.051-5.965"/>
							
								<path style="fill:none;stroke:#025B52;stroke-width:1.2;stroke-linecap:round;stroke-linejoin:round;stroke-miterlimit:10;" d="
								M125.585,483.082c2.499-3.334,4.997-6.668,7.496-10.003"/>
							
								<path style="fill:none;stroke:#025B52;stroke-width:1.2;stroke-linecap:round;stroke-linejoin:round;stroke-miterlimit:10;" d="
								M97.078,505.575c2.682-3.99,5.364-7.979,8.046-11.969"/>
							
								<path style="fill:none;stroke:#025B52;stroke-width:1.2;stroke-linecap:round;stroke-linejoin:round;stroke-miterlimit:10;" d="
								M19.564,445.054c-0.198-4.168-0.011-8.355,0.557-12.489"/>
						</g>
					</g>
				</g>
			</g>
		</g>
		<path style="clip-path:url(#SVGID_00000023963539845752117030000012446037078405405114_);fill:#FFFFFF;" d="M543.518,232.041
			c2.613-7.45,6.9-15.622,14.627-17.243c1.342-0.282,2.868-0.299,3.942,0.554c1.073,0.852,1.395,2.312,1.995,3.545
			c2.335,4.794,9.234,5.806,13.935,3.289c4.701-2.516,7.559-7.459,9.646-12.366c2.086-4.907,3.702-10.122,6.956-14.347
			c3.254-4.225,8.734-7.311,13.871-5.882c6.444,1.794,9.213,9.487,9.418,16.172c0.078,2.554,0,5.341,1.558,7.367
			c3.318,4.312,10.272,1.434,14.245-2.284c3.972-3.718,8.794-8.422,13.948-6.678c5.171,1.75,6.148,8.52,6.227,13.978
			c0.053,3.638,0.106,7.277,0.159,10.915"/>
	</g>
	<g>
		<path style="fill:#E39B23;" d="M317.33,194.985c-2.074-4.785-7.995-7.689-13.846-8.137c-15.652-1.199-23.488,5.82-26.592,18.351
			c-2.111,8.523-2.676,17.313-2.032,26.014c0.292,3.943,0.849,7.937,2.638,11.568c3.495,7.091,11.885,12.144,20.738,12.491
			c6.547,0.257,11.459-5.672,14.635-10.664s4.237-10.776,4.944-16.449C319.213,216.951,321.902,205.534,317.33,194.985z"/>
		<g>
			<path style="fill:#008197;" d="M297.048,372.888c-0.713,7.412-0.633,15.434-0.439,22.084c0.013,0.454,0.027,1.186,0.041,1.967
				c0.03,1.683,1.397,3.031,3.08,3.031c8.225-0.003,17.579,0.008,25.484,0.002c0.037-0.79-0.014-2.676-0.141-3.305
				c-0.445-2.212-1.824-3.479-3.586-4.161c-2.263-0.877-4.89-0.827-6.912-2.169c-3.183-2.112-3.496-6.582-3.481-10.402
				c0.007-1.848,0.014-3.696,0.022-5.544"/>
			<path style="fill:none;stroke:#004E60;stroke-linecap:round;stroke-linejoin:round;stroke-miterlimit:10;" d="M295.819,395.717
				c7.426,0.952,14.948,0.718,22.431,0.483c2.097-0.066,4.195-0.132,6.292-0.198"/>
			<path style="fill:none;stroke:#004E60;stroke-linecap:round;stroke-linejoin:round;stroke-miterlimit:10;" d="M317.578,395.635
				c-0.193-1.691,0.857-3.448,2.438-4.079"/>
			<path style="fill:none;stroke:#004E60;stroke-linecap:round;stroke-linejoin:round;stroke-miterlimit:10;" d="M307.813,388.17
				c1.341-0.626,2.772-1.058,4.236-1.278"/>
			<path style="fill:none;stroke:#004E60;stroke-linecap:round;stroke-linejoin:round;stroke-miterlimit:10;" d="M309.258,390.563
				c1.181-0.64,2.362-1.28,3.543-1.92"/>
			<path style="fill:none;stroke:#004E60;stroke-linecap:round;stroke-linejoin:round;stroke-miterlimit:10;" d="M312.56,393.394
				c0.601-1.116,1.558-2.036,2.697-2.591"/>
		</g>
		<g>
			<path style="fill:#008197;" d="M336.382,360.888c-0.713,7.412-0.633,15.434-0.439,22.084c0.011,0.36,0.021,0.894,0.033,1.488
				c0.036,1.948,1.62,3.51,3.568,3.509c8.108-0.002,17.253,0.008,25.004,0.002c0.037-0.79-0.014-2.676-0.141-3.305
				c-0.445-2.212-1.824-3.479-3.586-4.161c-2.263-0.877-4.89-0.827-6.912-2.169c-3.183-2.112-3.496-6.582-3.481-10.402
				c0.007-1.848,0.014-3.696,0.022-5.544"/>
			<path style="fill:none;stroke:#004E60;stroke-linecap:round;stroke-linejoin:round;stroke-miterlimit:10;" d="M336.007,383.399
				c-0.064-0.427,18.791,0.489,28.289,1.001"/>
			<path style="fill:none;stroke:#004E60;stroke-linecap:round;stroke-linejoin:round;stroke-miterlimit:10;" d="M356.836,383.636
				c-0.092-1.686,0.878-3.385,2.377-4.163"/>
			<path style="fill:none;stroke:#004E60;stroke-linecap:round;stroke-linejoin:round;stroke-miterlimit:10;" d="M348.569,376.694
				c1.064-0.385,2.129-0.771,3.193-1.157"/>
			<path style="fill:none;stroke:#004E60;stroke-linecap:round;stroke-linejoin:round;stroke-miterlimit:10;" d="M350.077,379.194
				c1.057-0.551,2.113-1.102,3.17-1.653"/>
			<path style="fill:none;stroke:#004E60;stroke-linecap:round;stroke-linejoin:round;stroke-miterlimit:10;" d="M353.094,380.693
				c0.736-0.601,1.471-1.202,2.207-1.803"/>
		</g>
		<g>
			<path style="fill:#964941;" d="M295.798,255.013c0.074,24.197-0.675,48.602-0.728,71.624
				c-0.044,19.459-6.856,38.251-7.856,57.084c5.25,1.25,24.854,0.159,28.833-0.333c0,0,1.617-27.384,3.424-56.505
				c0.886-14.277,4.181-28.578,5.826-38.995c5.188,6.445,19.714-13.603,10.987-32.994"/>
			<path style="fill:none;stroke:#4C1B1A;stroke-linecap:round;stroke-linejoin:round;stroke-miterlimit:10;" d="M294.671,383.713
				c0.771-8.7,2.847-17.224,4.267-25.842c3.052-18.511,3.082-37.32,4.205-56.001c0.502-8.345-0.137-19.695,2.92-27.547
				c1.119-2.875,4.015-4.584,5.883-7.219c2.234-3.152,3.725-6.841,4.231-10.676"/>
			<path style="fill:none;stroke:#4C1B1A;stroke-linecap:round;stroke-linejoin:round;stroke-miterlimit:10;" d="M287.552,376.293
				c9.499,0.349,19.014,0.263,28.505-0.256"/>
		</g>
		<g>
			<path style="fill:#7A3530;" d="M325.298,287.888c1.813-14.188,4.875-25.938,6-36.75c1.581,2.129,2.6-0.696,4.063,2
				c7.563,13.938,19.705,34.594,25.201,46.724c2.18,4.81,4.218,9.819,4.49,15.093c0.211,4.088-0.652,8.147-1.51,12.15
				c-3.046,14.212-4.447,29.07-7.493,43.283c-8.569,3.897-20.287,3.717-29.179,0.628c2.646-11.017,5.293-22.034,7.939-33.051
				c1.024-4.263,2.053-8.563,2.18-12.946C337.327,313.301,331.165,298.037,325.298,287.888z"/>
			<path style="fill:none;stroke:#4C1B1A;stroke-linecap:round;stroke-linejoin:round;stroke-miterlimit:10;" d="M327.492,282.917
				c4.906,9.565,9.262,19.413,13.038,29.478c3.142,8.373-0.957,19.25-2.891,27.981c-2.286,10.32-4.573,20.64-6.859,30.961"/>
			<path style="fill:none;stroke:#4C1B1A;stroke-linecap:round;stroke-linejoin:round;stroke-miterlimit:10;" d="M328.62,365.075
				c6.432,1.5,13.165,1.694,19.673,0.568c2.917-0.505,5.834-1.275,8.789-1.09"/>
		</g>
		<g>
			<path style="fill:#D65739;" d="M294.12,255.993c-1.422-18.164-0.613-31.054,1.606-47.71c0.909-6.822,4.239-13.168,9.586-17.501
				c1.973-1.599,3.987-2.719,5.987-3.019c5.361-0.804,5.065-0.346,10.583-0.042c14.667,14.667,12.417,20.167,13.917,29.667
				c2.037,12.899,2.283,25.771,2.328,38.612"/>
			<path style="fill:none;stroke:#99321D;stroke-linecap:round;stroke-linejoin:round;stroke-miterlimit:10;" d="M313.283,191.701
				c3.46,0.873,7.177,0.699,10.54-0.493"/>
			<path style="fill:none;stroke:#99321D;stroke-linecap:round;stroke-linejoin:round;stroke-miterlimit:10;" d="M311.52,252.969
				c9.779-0.33,16.029-0.33,25.529-0.08"/>
			<path style="fill:none;stroke:#99321D;stroke-linecap:round;stroke-linejoin:round;stroke-miterlimit:10;" d="M323.447,219.514
				c2.554,3.038,4.955,6.205,7.189,9.485"/>
			<path style="fill:none;stroke:#99321D;stroke-linecap:round;stroke-linejoin:round;stroke-miterlimit:10;" d="M325.714,217.202
				c1.042,1.385,2.084,2.77,3.126,4.155"/>
		</g>
		<g>
			<g>
				<path style="fill:#F7B98F;" d="M310.932,187.61c-0.132-3.675-0.264-7.349-0.396-11.024c4.061,0.535,11.46-2.623,12.684,3.414
					c0.605,2.984-0.632,8.203-0.632,8.203C319.564,189.556,313.604,188.112,310.932,187.61z"/>
				<path style="fill:#F7B98F;" d="M328.446,180.178c-2.95,3.462-8.174,4.413-12.619,3.312c-3.509-0.869-6.712-2.876-8.99-5.632
					c-6.864-8.304-1.94-24.07,10.476-23.241C327.428,155.293,334.965,172.53,328.446,180.178z"/>
				<path style="fill:#F7B98F;" d="M330.585,171.746c1.11,0.09,2.253-0.454,2.871-1.368c0.617-0.913,0.684-2.158,0.166-3.125
					c-0.951-1.778-3.314-2.189-4.99-3.34"/>
			</g>
			<g>
				
					<path style="fill:none;stroke:#16211A;stroke-width:0.8877;stroke-linecap:round;stroke-linejoin:round;stroke-miterlimit:10;" d="
					M330.181,175.333c-1.1,0.37-2.395,0.083-3.235-0.717"/>
				
					<path style="fill:none;stroke:#16211A;stroke-width:0.8877;stroke-linecap:round;stroke-linejoin:round;stroke-miterlimit:10;" d="
					M327.611,165.141c0.037,0.368,0.073,0.736,0.11,1.104"/>
				
					<path style="fill:none;stroke:#16211A;stroke-width:0.8877;stroke-linecap:round;stroke-linejoin:round;stroke-miterlimit:10;" d="
					M316.855,169.624c-0.406-0.549-1.333-0.399-1.781,0.117c-0.448,0.516-0.547,1.239-0.625,1.918"/>
				<path style="fill:#D86860;" d="M324.871,171.857c-1.287,0.65-3.068-0.055-3.56-1.411c-0.739-2.032,1.542-4.183,3.53-3.245
					C326.688,168.073,326.654,170.957,324.871,171.857z"/>
			</g>
			<g>
				<path style="fill:#16211A;" d="M328.135,155.659c0.867,0.812,1.516,1.946,1.445,3.132c-0.093,1.558-1.455,2.843-2.975,3.196
					c-1.52,0.353-3.131-0.079-4.508-0.814c-0.303,1.421-0.784,3.304-1.084,4.726c-0.3,1.422-1.369,2.883-2.822,2.859
					c-1.188-0.02-2.186-1.022-3.373-1.063c-1.515-0.052-2.681,1.638-2.462,3.138c0.219,1.5,1.464,2.683,2.854,3.288
					c-0.45,2.69-2.266,6.087-4.508,8.207c-4.81-0.772-6.26-5.607-7.608-10.289c-0.508-1.764-0.816-3.608-0.649-5.435
					c0.336-3.676,2.613-6.995,5.598-9.167s5.647-3.285,10.384-2.754C319.173,154.766,325.684,153.362,328.135,155.659z"/>
				
					<path style="fill:none;stroke:#16211A;stroke-width:0.8877;stroke-linecap:round;stroke-linejoin:round;stroke-miterlimit:10;" d="
					M321.244,162.08c0.035,1.37-0.066,2.744-0.301,4.094c-0.178,1.025-0.521,2.155-1.439,2.644
					c-1.112,0.591-2.561-0.122-3.197-1.209"/>
			</g>
			<path style="fill:#16211A;" d="M304.047,170.956c-2.286-0.589-4.869,0.179-6.462,1.921c-1.593,1.743-2.126,4.384-1.333,6.608
				c0.221,0.621,0.536,1.207,0.9,1.756c0.695,1.048,1.584,1.98,2.656,2.638c2.309,1.418,5.427,1.392,7.712-0.063
				c2.286-1.456,3.627-4.27,3.319-6.962"/>
			
				<path style="fill:none;stroke:#16211A;stroke-width:0.8877;stroke-linecap:round;stroke-linejoin:round;stroke-miterlimit:10;" d="
				M298.559,182.695c-1.737,0.247-3.457-0.982-4.158-2.59c-0.701-1.608-0.533-3.483,0.041-5.141
				c0.358-1.035,0.876-2.028,1.627-2.824c1.276-1.351,3.216-2.041,5.058-1.799c1.842,0.242,3.539,1.409,4.423,3.044"/>
			
				<path style="fill:none;stroke:#16211A;stroke-width:0.8877;stroke-linecap:round;stroke-linejoin:round;stroke-miterlimit:10;" d="
				M321.635,161.329c0.836,1.211,2.434,1.843,3.872,1.531c1.438-0.312,2.63-1.549,2.889-2.998"/>
		</g>
		<g>
			<path style="fill:#D65739;" d="M302.086,167.195c-0.865-1.944-0.906-4.31-0.599-6.442c0.348-2.41,1.313-4.848,2.702-6.463
				c3.021-3.513,10.073-6.072,14.483-5.246c3.433,0.643,8.912,3.245,10.938,8.436C323.235,158.928,303.814,166.634,302.086,167.195z
				"/>
			<path style="fill:#D65739;" d="M319.164,160.536c5.789-2.636,12.571-2.612,18.194-5.585c-0.093-0.691-0.62-1.598-1.308-1.708
				s-1.385,0.076-2.057,0.261c-7.254,1.997-14.491,4.056-21.711,6.177"/>
			<path style="fill:none;stroke:#99321D;stroke-linecap:round;stroke-linejoin:round;stroke-miterlimit:10;" d="M309.028,164.397
				c-1.799-4.24-1.575-9.289,0.593-13.353"/>
			<path style="fill:none;stroke:#99321D;stroke-linecap:round;stroke-linejoin:round;stroke-miterlimit:10;" d="M312.596,149.829
				c3.465,2.798,5.96,6.776,6.971,11.113"/>
			<path style="fill:none;stroke:#99321D;stroke-linecap:round;stroke-linejoin:round;stroke-miterlimit:10;" d="M313.855,153.609
				c0.653,1.257,1.305,2.514,1.958,3.772"/>
			<path style="fill:none;stroke:#99321D;stroke-linecap:round;stroke-linejoin:round;stroke-miterlimit:10;" d="M324.815,153.626
				c0.64,0.853,1.28,1.707,1.92,2.56"/>
		</g>
		<g>
			<path style="fill:#F7B98F;" d="M302.425,217.408c-2.378-0.607-10.262-10.377-14.375-12.551
				c-7.226,7.822-22.283,19.709-26.168,29.698c-1.167,3,7.348,11.457,14,15.833c6.333,4.167,11.417,7.167,19.768,10.317
				c3.069-4.161,4.398-11.15,0.315-14.567c-12.25-6.167-14.417-11.083-14.417-11.083S299.015,219.922,302.425,217.408"/>
			<path style="fill:#F7B98F;" d="M294.215,245.724c1.803-0.271,4.816-0.745,6.624-0.973c0.56-0.071,1.179-0.125,1.639,0.201
				c0.719,0.51,0.586,1.697-0.033,2.324c-0.62,0.627-1.532,0.842-2.394,1.029c-1.249,0.271-2.498,0.543-3.746,0.814"/>
			<path style="fill:#F7B98F;" d="M291.647,258.824c3.405,1.757,7.13,2.891,10.936,3.331c0.749,0.086,1.538,0.141,2.227-0.167
				s1.221-1.093,0.99-1.811c-0.213-0.664-0.939-0.993-1.59-1.245c-3.638-1.408-7.275-2.817-10.913-4.225"/>
			<path style="fill:#F7B98F;" d="M295.632,251.472c3.94,0.898,9.921,1.963,13.649,3.522c0.402,0.168,0.821,0.354,1.086,0.701
				c0.615,0.806,0.016,2.064-0.904,2.489c-0.92,0.425-1.991,0.267-2.991,0.101c-3.1-0.515-6.201-1.029-9.301-1.544
				c-0.66-0.11-1.39-0.261-1.781-0.805"/>
			<path style="fill:#F7B98F;" d="M295.01,248.482c4.27-0.165,8.553-0.072,12.809,0.276c1.712,0.14,2.53,2.351,1.197,3.435
				c-0.087,0.071-0.178,0.133-0.273,0.187c-1.143,0.645-2.594,0.652-3.954,0.625c-3.557-0.071-7.112-0.227-10.659-0.468"/>
		</g>
		<g>
			<path style="fill:#D65739;" d="M296.659,226.109c-6.379-6.383-12.032-9.286-18.411-15.668c3.521-4.105,7.392-9.963,11.265-13.922
				c2.551-2.607,5.447-4.995,8.873-6.246c3.427-1.251,9.85-2.317,12.909-0.329c3.134,2.037,2.418,6.946,2.579,10.681
				s-1.489,6.918-3.582,10.015C305.992,217.001,301.247,221.643,296.659,226.109z"/>
			<path style="fill:none;stroke:#99321D;stroke-linecap:round;stroke-linejoin:round;stroke-miterlimit:10;" d="M294.479,223.567
				c2.531-2.476,4.863-5.156,6.965-8.006"/>
			<path style="fill:none;stroke:#99321D;stroke-linecap:round;stroke-linejoin:round;stroke-miterlimit:10;" d="M299.757,221.608
				c0.42-0.581,0.84-1.162,1.259-1.743"/>
			<path style="fill:none;stroke:#99321D;stroke-linecap:round;stroke-linejoin:round;stroke-miterlimit:10;" d="M281.306,206.605
				c1.205,0.438,2.188,1.318,3.14,2.177c4.193,3.788,8.386,7.577,12.579,11.365"/>
		</g>
		<g>
			<path style="fill:#E39B23;" d="M301.432,188.815c2.349,2.636,3.024,6.35,3.232,9.874c0.741,12.557-0.49,30.7-13.615,34.95
				c0.025,2.588,0.975,6.662,1,9.25c3.782,0.748,9.018-1.917,12.116-4.213c3.097-2.295,5.38-5.537,7.147-8.964
				c6.649-12.896,6.158-29.203-1.257-41.675c-2.093-0.425-4.291-0.324-6.337,0.29c-0.418,0.126-0.771,0.422-1.192,0.536
				c-0.421,0.114-0.992-0.078-1.023-0.513C301.47,187.915,301.555,188.396,301.432,188.815z"/>
			<path style="fill:none;stroke:#A36811;stroke-linecap:round;stroke-linejoin:round;stroke-miterlimit:10;" d="M294.531,234.847
				c3.284-1.36,6.026-3.982,7.531-7.202"/>
			<path style="fill:none;stroke:#A36811;stroke-linecap:round;stroke-linejoin:round;stroke-miterlimit:10;" d="M303.554,224.641
				c0.416-0.917,0.833-1.833,1.249-2.75"/>
			<path style="fill:none;stroke:#A36811;stroke-linecap:round;stroke-linejoin:round;stroke-miterlimit:10;" d="M303.255,231.364
				c1.03-1.856,1.937-3.781,2.712-5.758"/>
			<path style="fill:none;stroke:#A36811;stroke-linecap:round;stroke-linejoin:round;stroke-miterlimit:10;" d="M309.618,190.124
				c0.506,2.415,1.012,4.831,1.518,7.246"/>
			<path style="fill:none;stroke:#A36811;stroke-linecap:round;stroke-linejoin:round;stroke-miterlimit:10;" d="M293.145,233.305
				c0.099,2.416,0.198,4.832,0.296,7.248"/>
		</g>
	</g>
</g>
</svg>
