<?xml version="1.0" encoding="UTF-8"?>
<!DOCTYPE svg PUBLIC "-//W3C//DTD SVG 1.1//EN" "http://www.w3.org/Graphics/SVG/1.1/DTD/svg11.dtd">
<svg xmlns="http://www.w3.org/2000/svg" version="1.1" width="64px" height="64px" style="shape-rendering:geometricPrecision; text-rendering:geometricPrecision; image-rendering:optimizeQuality; fill-rule:evenodd; clip-rule:evenodd" xmlns:xlink="http://www.w3.org/1999/xlink">
<g><path style="opacity:0.945" fill="#c8dade" d="M 25.5,13.5 C 24.6762,17.3123 24.1762,21.3123 24,25.5C 22.9986,28.1732 21.4986,30.5065 19.5,32.5C 18.7022,30.9223 18.2022,29.2556 18,27.5C 16.6439,28.3802 15.1439,28.7135 13.5,28.5C 15.7204,23.7283 18.2204,19.0616 21,14.5C 22.3466,12.5339 23.8466,12.2006 25.5,13.5 Z"/></g>
<g><path style="opacity:0.95" fill="#04769b" d="M 25.5,13.5 C 27.2872,19.7886 30.9538,24.4552 36.5,27.5C 35.3661,31.1012 33.6994,34.4345 31.5,37.5C 27.4631,41.2146 24.1297,45.548 21.5,50.5C 14.1667,50.5 6.83333,50.5 -0.5,50.5C -0.5,49.1667 -0.5,47.8333 -0.5,46.5C 2.47831,42.5566 4.97831,38.2232 7,33.5C 9.42899,32.1063 11.5957,30.4396 13.5,28.5C 15.1439,28.7135 16.6439,28.3802 18,27.5C 18.2022,29.2556 18.7022,30.9223 19.5,32.5C 21.4986,30.5065 22.9986,28.1732 24,25.5C 24.1762,21.3123 24.6762,17.3123 25.5,13.5 Z"/></g>
<g><path style="opacity:0.967" fill="#c8d9de" d="M 43.5,23.5 C 42.9819,28.5301 41.8152,33.5301 40,38.5C 37.6408,41.0376 36.1408,40.3709 35.5,36.5C 34.2638,37.2458 32.9305,37.5792 31.5,37.5C 33.6994,34.4345 35.3661,31.1012 36.5,27.5C 38.0987,25.3962 39.932,23.3962 42,21.5C 42.7172,22.0442 43.2172,22.7109 43.5,23.5 Z"/></g>
<g><path style="opacity:0.929" fill="#03607f" d="M 43.5,23.5 C 46.0716,27.6392 48.4049,31.9726 50.5,36.5C 52.4789,39.1456 54.8122,41.4789 57.5,43.5C 58.3857,42.675 58.719,41.675 58.5,40.5C 59.9213,43.0094 61.5879,45.3428 63.5,47.5C 63.5,48.5 63.5,49.5 63.5,50.5C 49.5,50.5 35.5,50.5 21.5,50.5C 24.1297,45.548 27.4631,41.2146 31.5,37.5C 32.9305,37.5792 34.2638,37.2458 35.5,36.5C 36.1408,40.3709 37.6408,41.0376 40,38.5C 41.8152,33.5301 42.9819,28.5301 43.5,23.5 Z"/></g>
<g><path style="opacity:0.821" fill="#c8d9dd" d="M 50.5,36.5 C 54.483,35.5715 57.1497,36.9049 58.5,40.5C 58.719,41.675 58.3857,42.675 57.5,43.5C 54.8122,41.4789 52.4789,39.1456 50.5,36.5 Z"/></g>
</svg>
