<?xml version="1.0" encoding="UTF-8"?>
<!DOCTYPE svg PUBLIC "-//W3C//DTD SVG 1.1//EN" "http://www.w3.org/Graphics/SVG/1.1/DTD/svg11.dtd">
<svg xmlns="http://www.w3.org/2000/svg" version="1.1" width="64px" height="64px" style="shape-rendering:geometricPrecision; text-rendering:geometricPrecision; image-rendering:optimizeQuality; fill-rule:evenodd; clip-rule:evenodd" xmlns:xlink="http://www.w3.org/1999/xlink">
<g><path style="opacity:0.857" fill="#4672c9" d="M 40.5,16.5 C 38.3926,17.4682 36.0593,17.8016 33.5,17.5C 33.5,16.1667 33.5,14.8333 33.5,13.5C 32.1667,13.5 30.8333,13.5 29.5,13.5C 29.5,14.8333 29.5,16.1667 29.5,17.5C 26.9407,17.8016 24.6074,17.4682 22.5,16.5C 22.5,13.8333 22.5,11.1667 22.5,8.5C 28.5,8.5 34.5,8.5 40.5,8.5C 40.5,11.1667 40.5,13.8333 40.5,16.5 Z"/></g>
<g><path style="opacity:1" fill="#d9808a" d="M 33.5,17.5 C 32.5655,18.5676 32.2322,19.901 32.5,21.5C 31.8333,21.5 31.1667,21.5 30.5,21.5C 30.7678,19.901 30.4345,18.5676 29.5,17.5C 29.5,16.1667 29.5,14.8333 29.5,13.5C 30.8333,13.5 32.1667,13.5 33.5,13.5C 33.5,14.8333 33.5,16.1667 33.5,17.5 Z"/></g>
<g><path style="opacity:0.916" fill="#e07d84" d="M 12.5,16.5 C 11.1835,26.2649 11.1835,35.9316 12.5,45.5C 12.5,45.8333 12.5,46.1667 12.5,46.5C 11.3646,48.2132 9.69798,48.8799 7.5,48.5C 7.5,47.5 7.5,46.5 7.5,45.5C 7.5,41.1667 7.5,36.8333 7.5,32.5C 7.5,31.8333 7.5,31.1667 7.5,30.5C 7.5,25.1667 7.5,19.8333 7.5,14.5C 9.78121,14.0773 11.4479,14.744 12.5,16.5 Z"/></g>
<g><path style="opacity:0.911" fill="#e07c84" d="M 55.5,30.5 C 55.5,31.1667 55.5,31.8333 55.5,32.5C 55.5,36.8333 55.5,41.1667 55.5,45.5C 55.5,46.5 55.5,47.5 55.5,48.5C 53.302,48.8799 51.6354,48.2132 50.5,46.5C 50.5,46.1667 50.5,45.8333 50.5,45.5C 51.8333,35.8333 51.8333,26.1667 50.5,16.5C 51.5521,14.744 53.2188,14.0773 55.5,14.5C 55.5,19.8333 55.5,25.1667 55.5,30.5 Z"/></g>
<g><path style="opacity:0.983" fill="#e3f3fb" d="M 12.5,16.5 C 15.8333,16.5 19.1667,16.5 22.5,16.5C 24.6074,17.4682 26.9407,17.8016 29.5,17.5C 30.4345,18.5676 30.7678,19.901 30.5,21.5C 30.7135,23.1439 30.3802,24.6439 29.5,26C 27.5,26.3333 25.5,26.6667 23.5,27C 23.0426,27.414 22.7093,27.914 22.5,28.5C 25.2732,29.2525 27.9399,30.2525 30.5,31.5C 29.3112,32.4287 27.9778,32.762 26.5,32.5C 26.5,33.5 26.5,34.5 26.5,35.5C 27.8221,35.33 28.9887,35.6634 30,36.5C 30.498,39.4816 30.6646,42.4816 30.5,45.5C 24.5,45.5 18.5,45.5 12.5,45.5C 11.1835,35.9316 11.1835,26.2649 12.5,16.5 Z"/></g>
<g><path style="opacity:0.986" fill="#e0f3fc" d="M 40.5,16.5 C 43.8333,16.5 47.1667,16.5 50.5,16.5C 51.8333,26.1667 51.8333,35.8333 50.5,45.5C 44.5,45.5 38.5,45.5 32.5,45.5C 32.5,43.1667 32.5,40.8333 32.5,38.5C 33.9778,38.762 35.3112,38.4287 36.5,37.5C 34.7127,36.684 33.0461,35.684 31.5,34.5C 34.2732,33.7475 36.9399,32.7475 39.5,31.5C 35.9115,30.1226 32.2448,28.9559 28.5,28C 29.7932,27.51 31.1266,27.3433 32.5,27.5C 32.5,25.5 32.5,23.5 32.5,21.5C 32.2322,19.901 32.5655,18.5676 33.5,17.5C 36.0593,17.8016 38.3926,17.4682 40.5,16.5 Z"/></g>
<g><path style="opacity:1" fill="#a5b6c8" d="M 30.5,21.5 C 31.1667,21.5 31.8333,21.5 32.5,21.5C 32.5,23.5 32.5,25.5 32.5,27.5C 31.1266,27.3433 29.7932,27.51 28.5,28C 32.2448,28.9559 35.9115,30.1226 39.5,31.5C 36.9399,32.7475 34.2732,33.7475 31.5,34.5C 33.0461,35.684 34.7127,36.684 36.5,37.5C 35.3112,38.4287 33.9778,38.762 32.5,38.5C 32.5,40.8333 32.5,43.1667 32.5,45.5C 38.5,45.5 44.5,45.5 50.5,45.5C 50.5,45.8333 50.5,46.1667 50.5,46.5C 37.8333,46.5 25.1667,46.5 12.5,46.5C 12.5,46.1667 12.5,45.8333 12.5,45.5C 18.5,45.5 24.5,45.5 30.5,45.5C 30.6646,42.4816 30.498,39.4816 30,36.5C 28.9887,35.6634 27.8221,35.33 26.5,35.5C 26.5,34.5 26.5,33.5 26.5,32.5C 27.9778,32.762 29.3112,32.4287 30.5,31.5C 27.9399,30.2525 25.2732,29.2525 22.5,28.5C 22.7093,27.914 23.0426,27.414 23.5,27C 25.5,26.6667 27.5,26.3333 29.5,26C 30.3802,24.6439 30.7135,23.1439 30.5,21.5 Z"/></g>
<g><path style="opacity:0.92" fill="#9dabba" d="M 7.5,30.5 C 7.5,31.1667 7.5,31.8333 7.5,32.5C 6.16667,32.5 4.83333,32.5 3.5,32.5C 3.5,34.1667 3.5,35.8333 3.5,37.5C 2.5,37.5 1.5,37.5 0.5,37.5C 0.5,35.1667 0.5,32.8333 0.5,30.5C 2.83333,30.5 5.16667,30.5 7.5,30.5 Z"/></g>
<g><path style="opacity:0.92" fill="#9dacba" d="M 55.5,30.5 C 57.8333,30.5 60.1667,30.5 62.5,30.5C 62.5,32.8333 62.5,35.1667 62.5,37.5C 61.5,37.5 60.5,37.5 59.5,37.5C 59.5,35.8333 59.5,34.1667 59.5,32.5C 58.1667,32.5 56.8333,32.5 55.5,32.5C 55.5,31.8333 55.5,31.1667 55.5,30.5 Z"/></g>
<g><path style="opacity:0.851" fill="#efda5d" d="M 59.5,37.5 C 60.5,37.5 61.5,37.5 62.5,37.5C 62.8333,37.5 63.1667,37.5 63.5,37.5C 63.5,40.5 63.5,43.5 63.5,46.5C 61.7085,46.634 60.0418,46.3007 58.5,45.5C 58.1936,42.6146 58.5269,39.9479 59.5,37.5 Z"/></g>
<g><path style="opacity:1" fill="#eed651" d="M -0.5,37.5 C -0.166667,37.5 0.166667,37.5 0.5,37.5C 1.5,37.5 2.5,37.5 3.5,37.5C 4.47307,39.9479 4.8064,42.6146 4.5,45.5C 2.95819,46.3007 1.29152,46.634 -0.5,46.5C -0.5,43.5 -0.5,40.5 -0.5,37.5 Z"/></g>
<g><path style="opacity:0.943" fill="#4171c9" d="M 4.5,45.5 C 5.5,45.5 6.5,45.5 7.5,45.5C 7.5,46.5 7.5,47.5 7.5,48.5C 9.69798,48.8799 11.3646,48.2132 12.5,46.5C 25.1667,46.5 37.8333,46.5 50.5,46.5C 51.6354,48.2132 53.302,48.8799 55.5,48.5C 55.5,47.5 55.5,46.5 55.5,45.5C 56.5,45.5 57.5,45.5 58.5,45.5C 60.0418,46.3007 61.7085,46.634 63.5,46.5C 63.5,49.1667 63.5,51.8333 63.5,54.5C 42.1667,54.5 20.8333,54.5 -0.5,54.5C -0.5,51.8333 -0.5,49.1667 -0.5,46.5C 1.29152,46.634 2.95819,46.3007 4.5,45.5 Z"/></g>
</svg>
