<?xml version="1.0" encoding="UTF-8"?>
<!DOCTYPE svg PUBLIC "-//W3C//DTD SVG 1.1//EN" "http://www.w3.org/Graphics/SVG/1.1/DTD/svg11.dtd">
<svg xmlns="http://www.w3.org/2000/svg" version="1.1" width="64px" height="64px" style="shape-rendering:geometricPrecision; text-rendering:geometricPrecision; image-rendering:optimizeQuality; fill-rule:evenodd; clip-rule:evenodd" xmlns:xlink="http://www.w3.org/1999/xlink">
<g><path style="opacity:0.735" fill="#6284cf" d="M 52.5,0.5 C 57.0057,-0.472781 59.1724,1.19389 59,5.5C 56.7569,7.28195 54.2569,7.78195 51.5,7C 52.5,6.16667 53.5,5.33333 54.5,4.5C 53.3698,3.37765 52.7031,2.04432 52.5,0.5 Z"/></g>
<g><path style="opacity:0.498" fill="#8aa073" d="M 29.5,1.5 C 31.4646,1.94835 31.7979,2.94835 30.5,4.5C 28.4807,3.86709 28.1474,2.86709 29.5,1.5 Z"/></g>
<g><path style="opacity:0.671" fill="#f19051" d="M 44.5,1.5 C 45.675,1.28099 46.675,1.61432 47.5,2.5C 45.9483,3.79789 44.9483,3.46455 44.5,1.5 Z"/></g>
<g><path style="opacity:0.941" fill="#9fbbf1" d="M 48.5,11.5 C 44.5115,10.3023 40.5115,10.3023 36.5,11.5C 40.9156,11.8818 44.9156,12.8818 48.5,14.5C 48.5,16.5 48.5,18.5 48.5,20.5C 43.7027,20.1211 39.036,20.6211 34.5,22C 39.2148,21.3806 43.8815,21.5473 48.5,22.5C 48.1667,24.5 47.8333,26.5 47.5,28.5C 46.3915,29.29 45.0581,29.79 43.5,30C 44.7375,30.2321 45.7375,30.7321 46.5,31.5C 45.1667,34.1667 43.8333,36.8333 42.5,39.5C 40.076,39.1924 37.7427,39.5258 35.5,40.5C 36.6888,41.4287 38.0222,41.762 39.5,41.5C 36.8347,44.3347 34.3347,47.3347 32,50.5C 31.1088,54.3716 31.6088,58.0382 33.5,61.5C 27.0649,61.0683 23.3983,57.4017 22.5,50.5C 23.6808,48.9328 25.3474,48.0995 27.5,48C 25.5273,47.5045 23.5273,47.3379 21.5,47.5C 21.3253,45.3792 21.6586,43.3792 22.5,41.5C 23.4525,39.39 25.1192,38.2233 27.5,38C 26.2068,37.51 24.8734,37.3433 23.5,37.5C 23.5,37.1667 23.5,36.8333 23.5,36.5C 26.5458,35.0133 29.8791,34.0133 33.5,33.5C 29.88,32.7068 26.2133,32.7068 22.5,33.5C 22.6545,30.284 21.6545,27.6174 19.5,25.5C 19.4142,24.5041 19.7476,23.6708 20.5,23C 23.7105,21.148 27.0439,19.4814 30.5,18C 29.1667,17.3333 27.8333,17.3333 26.5,18C 23.5889,19.7611 20.5889,21.2611 17.5,22.5C 17.5654,22.0618 17.3988,21.7284 17,21.5C 12.15,25.8873 6.81664,26.8873 1,24.5C 0.333333,22.5 0.333333,20.5 1,18.5C 6.56633,11.9677 13.3997,7.30102 21.5,4.5C 22.7112,5.2739 22.7112,6.10723 21.5,7C 17.3851,9.4476 13.5518,12.2809 10,15.5C 9.01809,16.7589 8.68475,18.0922 9,19.5C 16.48,13.3437 24.98,9.17699 34.5,7C 38.5,6.33333 42.5,6.33333 46.5,7C 48.0368,8.10963 48.7035,9.60963 48.5,11.5 Z"/></g>
<g><path style="opacity:0.765" fill="#8ba872" d="M 56.5,10.5 C 60.7825,11.6862 61.4491,14.0196 58.5,17.5C 57.914,17.2907 57.414,16.9574 57,16.5C 56.5045,14.5273 56.3379,12.5273 56.5,10.5 Z"/></g>
<g><path style="opacity:1" fill="#7290d6" d="M 48.5,11.5 C 50.5,11.5 51.5,12.5 51.5,14.5C 50.5,14.5 49.5,14.5 48.5,14.5C 44.9156,12.8818 40.9156,11.8818 36.5,11.5C 40.5115,10.3023 44.5115,10.3023 48.5,11.5 Z"/></g>
<g><path style="opacity:0.49" fill="#6581c9" d="M 51.5,14.5 C 54.6741,14.9522 55.0075,15.9522 52.5,17.5C 51.6143,16.675 51.281,15.675 51.5,14.5 Z"/></g>
<g><path style="opacity:1" fill="#6685ce" d="M 48.5,20.5 C 52.2887,21.5961 52.2887,22.2627 48.5,22.5C 43.8815,21.5473 39.2148,21.3806 34.5,22C 39.036,20.6211 43.7027,20.1211 48.5,20.5 Z"/></g>
<g><path style="opacity:0.787" fill="#6284cc" d="M 46.5,31.5 C 45.7375,30.7321 44.7375,30.2321 43.5,30C 45.0581,29.79 46.3915,29.29 47.5,28.5C 50.8502,28.4944 53.8502,27.4944 56.5,25.5C 55.8333,24.5 55.1667,23.5 54.5,22.5C 60.286,20.6272 62.786,22.6272 62,28.5C 60.5093,30.0037 58.676,30.8371 56.5,31C 53.1832,31.4983 49.8499,31.665 46.5,31.5 Z"/></g>
<g><path style="opacity:0.629" fill="#6884cf" d="M 19.5,25.5 C 18.078,26.925 16.4113,27.925 14.5,28.5C 14.615,26.0532 15.615,24.0532 17.5,22.5C 20.5889,21.2611 23.5889,19.7611 26.5,18C 27.8333,17.3333 29.1667,17.3333 30.5,18C 27.0439,19.4814 23.7105,21.148 20.5,23C 19.7476,23.6708 19.4142,24.5041 19.5,25.5 Z"/></g>
<g><path style="opacity:0.502" fill="#9cb66a" d="M 1.5,28.5 C 4.79731,28.3287 5.13065,28.9954 2.5,30.5C 1.70245,30.0431 1.36912,29.3764 1.5,28.5 Z"/></g>
<g><path style="opacity:0.418" fill="#6087c7" d="M 14.5,28.5 C 14.0517,30.4646 13.0517,30.7979 11.5,29.5C 12.325,28.6143 13.325,28.281 14.5,28.5 Z"/></g>
<g><path style="opacity:0.754" fill="#f39650" d="M 8.5,33.5 C 12.2027,35.9636 12.036,38.6302 8,41.5C 6.08869,38.7222 6.25536,36.0556 8.5,33.5 Z"/></g>
<g><path style="opacity:0.675" fill="#f38e4e" d="M 56.5,34.5 C 57.675,34.281 58.675,34.6143 59.5,35.5C 57.9483,36.7979 56.9483,36.4646 56.5,34.5 Z"/></g>
<g><path style="opacity:0.697" fill="#6789ce" d="M 23.5,36.5 C 22.1667,36.8333 22.1667,37.1667 23.5,37.5C 24.8734,37.3433 26.2068,37.51 27.5,38C 25.1192,38.2233 23.4525,39.39 22.5,41.5C 20.4559,42.0312 18.7893,43.1978 17.5,45C 16.365,45.7494 15.365,45.5827 14.5,44.5C 15.6477,42.8513 16.981,41.3513 18.5,40C 17.0439,39.5774 16.5439,38.7441 17,37.5C 18.8121,36.0229 20.6455,34.6896 22.5,33.5C 26.2133,32.7068 29.88,32.7068 33.5,33.5C 29.8791,34.0133 26.5458,35.0133 23.5,36.5 Z"/></g>
<g><path style="opacity:0.732" fill="#698ad1" d="M 42.5,39.5 C 44.7273,42.619 43.7273,43.2857 39.5,41.5C 38.0222,41.762 36.6888,41.4287 35.5,40.5C 37.7427,39.5258 40.076,39.1924 42.5,39.5 Z"/></g>
<g><path style="opacity:0.732" fill="#f59b4f" d="M 52.5,45.5 C 56.3204,46.5724 57.3204,48.9057 55.5,52.5C 52.9066,50.9292 51.9066,48.5959 52.5,45.5 Z"/></g>
<g><path style="opacity:0.679" fill="#6685cf" d="M 21.5,47.5 C 23.5273,47.3379 25.5273,47.5045 27.5,48C 25.3474,48.0995 23.6808,48.9328 22.5,50.5C 21.2921,51.2341 19.9587,51.5674 18.5,51.5C 18.7706,49.5695 19.7706,48.2362 21.5,47.5 Z"/></g>
<g><path style="opacity:0.435" fill="#88a772" d="M 36.5,48.5 C 38.337,48.6395 38.6704,49.3061 37.5,50.5C 36.7025,50.0431 36.3691,49.3764 36.5,48.5 Z"/></g>
<g><path style="opacity:0.511" fill="#9fb467" d="M 18.5,51.5 C 18.0517,53.4646 17.0517,53.7979 15.5,52.5C 16.325,51.6143 17.325,51.281 18.5,51.5 Z"/></g>
<g><path style="opacity:0.738" fill="#89a872" d="M 4.5,52.5 C 8.52119,53.4829 9.85452,55.8163 8.5,59.5C 5.01304,58.4783 3.67971,56.145 4.5,52.5 Z"/></g>
<g><path style="opacity:0.529" fill="#f4a04c" d="M 45.5,53.5 C 46.675,53.281 47.675,53.6143 48.5,54.5C 46.9483,55.7979 45.9483,55.4646 45.5,53.5 Z"/></g>
</svg>
