<?xml version="1.0" encoding="UTF-8"?>
<!DOCTYPE svg PUBLIC "-//W3C//DTD SVG 1.1//EN" "http://www.w3.org/Graphics/SVG/1.1/DTD/svg11.dtd">
<svg xmlns="http://www.w3.org/2000/svg" version="1.1" width="64px" height="64px" style="shape-rendering:geometricPrecision; text-rendering:geometricPrecision; image-rendering:optimizeQuality; fill-rule:evenodd; clip-rule:evenodd" xmlns:xlink="http://www.w3.org/1999/xlink">
<g><path style="opacity:0.912" fill="#b6ecfd" d="M 33.5,-0.5 C 34.8333,-0.5 36.1667,-0.5 37.5,-0.5C 37.5,-0.166667 37.5,0.166667 37.5,0.5C 36.8485,1.09065 36.1818,1.75731 35.5,2.5C 33.9291,1.69063 32.2624,1.35729 30.5,1.5C 31.5,0.833333 32.5,0.166667 33.5,-0.5 Z"/></g>
<g><path style="opacity:0.987" fill="#14c0f9" d="M 38.5,-0.5 C 40.1667,-0.5 41.8333,-0.5 43.5,-0.5C 44.5676,0.434475 45.901,0.767809 47.5,0.5C 48.4101,3.81434 49.7435,4.14767 51.5,1.5C 54.2974,1.96659 55.6308,3.63326 55.5,6.5C 52.8246,7.97709 50.3246,7.64376 48,5.5C 42.3521,7.35133 36.5187,8.01799 30.5,7.5C 29.7784,7.08247 29.2784,6.4158 29,5.5C 28.2917,6.38053 27.4584,7.0472 26.5,7.5C 24.9519,7.82124 24.2852,8.82124 24.5,10.5C 18.8763,17.6729 17.3763,25.6729 20,34.5C 20.5,35.6667 21.3333,36.5 22.5,37C 26.6127,37.1341 30.6127,37.3007 34.5,37.5C 37.5711,38.6608 40.5711,38.3274 43.5,36.5C 47.3197,37.7992 51.1531,37.7992 55,36.5C 57.3187,37.8713 59.8187,38.5379 62.5,38.5C 61.9759,40.3057 61.3092,41.9724 60.5,43.5C 41.1933,42.4867 21.86,42.4867 2.5,43.5C 1.69079,41.9724 1.02412,40.3057 0.5,38.5C 3.72391,38.7965 6.72391,38.1298 9.5,36.5C 11.0983,37.4847 12.765,37.6514 14.5,37C 10.1577,20.8486 15.491,9.01527 30.5,1.5C 32.2624,1.35729 33.9291,1.69063 35.5,2.5C 36.1818,1.75731 36.8485,1.09065 37.5,0.5C 38.1667,0.5 38.5,0.166667 38.5,-0.5 Z"/></g>
<g><path style="opacity:0.83" fill="#c8effd" d="M 47.5,0.5 C 49.099,0.232191 50.4324,0.565525 51.5,1.5C 49.7435,4.14767 48.4101,3.81434 47.5,0.5 Z"/></g>
<g><path style="opacity:1" fill="#d4f3fc" d="M 40.5,1.5 C 41.5,1.5 42.5,1.5 43.5,1.5C 43.5,2.5 43.5,3.5 43.5,4.5C 42.5,4.5 41.5,4.5 40.5,4.5C 40.5,3.5 40.5,2.5 40.5,1.5 Z"/></g>
<g><path style="opacity:0.932" fill="#c7eefe" d="M 25.5,2.5 C 14.0022,9.48223 8.16887,19.8156 8,33.5C 6.11703,36.0244 3.61703,37.3577 0.5,37.5C -0.720421,18.9223 7.61291,7.25566 25.5,2.5 Z"/></g>
<g><path style="opacity:1" fill="#e6f9fe" d="M 32.5,3.5 C 35.1247,4.46572 35.1247,5.46572 32.5,6.5C 31.4376,5.57537 31.4376,4.57537 32.5,3.5 Z"/></g>
<g><path style="opacity:1" fill="#1292fc" d="M 30.5,7.5 C 30.6107,8.11742 30.944,8.61742 31.5,9C 34.8818,9.17636 38.2152,9.67636 41.5,10.5C 37.5272,15.1124 35.8605,20.4458 36.5,26.5C 30.9066,26.1934 25.4066,26.5268 20,27.5C 19.2211,29.9063 20.0544,31.573 22.5,32.5C 26.5388,32.0864 30.5388,31.7531 34.5,31.5C 34.5,33.5 34.5,35.5 34.5,37.5C 30.6127,37.3007 26.6127,37.1341 22.5,37C 21.3333,36.5 20.5,35.6667 20,34.5C 17.3763,25.6729 18.8763,17.6729 24.5,10.5C 27.2476,10.5983 27.9143,9.59829 26.5,7.5C 27.4584,7.0472 28.2917,6.38053 29,5.5C 29.2784,6.4158 29.7784,7.08247 30.5,7.5 Z"/></g>
<g><path style="opacity:1" fill="#d3edfe" d="M 26.5,7.5 C 27.9143,9.59829 27.2476,10.5983 24.5,10.5C 24.2852,8.82124 24.9519,7.82124 26.5,7.5 Z"/></g>
<g><path style="opacity:0.973" fill="#c7edfc" d="M 55.5,6.5 C 55.4257,8.4109 54.4257,9.57756 52.5,10C 58.3775,15.5885 61.7109,22.4218 62.5,30.5C 61.1667,30.5 59.8333,30.5 58.5,30.5C 58.8051,27.586 58.8051,24.9193 58.5,22.5C 54.114,18.4643 49.114,17.4643 43.5,19.5C 41.8624,20.657 40.1957,21.8236 38.5,23C 39.435,25.3806 39.7683,27.8806 39.5,30.5C 37.5853,30.2155 35.9187,30.5489 34.5,31.5C 30.5388,31.7531 26.5388,32.0864 22.5,32.5C 20.0544,31.573 19.2211,29.9063 20,27.5C 25.4066,26.5268 30.9066,26.1934 36.5,26.5C 35.8605,20.4458 37.5272,15.1124 41.5,10.5C 38.2152,9.67636 34.8818,9.17636 31.5,9C 30.944,8.61742 30.6107,8.11742 30.5,7.5C 36.5187,8.01799 42.3521,7.35133 48,5.5C 50.3246,7.64376 52.8246,7.97709 55.5,6.5 Z"/></g>
<g><path style="opacity:1" fill="#97e5fc" d="M 30.5,1.5 C 15.491,9.01527 10.1577,20.8486 14.5,37C 12.765,37.6514 11.0983,37.4847 9.5,36.5C 6.72391,38.1298 3.72391,38.7965 0.5,38.5C 0.5,38.1667 0.5,37.8333 0.5,37.5C 3.61703,37.3577 6.11703,36.0244 8,33.5C 8.16887,19.8156 14.0022,9.48223 25.5,2.5C 27.0418,1.69929 28.7085,1.36596 30.5,1.5 Z"/></g>
<g><path style="opacity:1" fill="#fc6772" d="M 43.5,19.5 C 49.114,17.4643 54.114,18.4643 58.5,22.5C 55.3601,23.6408 52.0267,23.8075 48.5,23C 47.2107,21.1978 45.5441,20.0312 43.5,19.5 Z"/></g>
<g><path style="opacity:1" fill="#f8ece6" d="M 43.5,19.5 C 45.5441,20.0312 47.2107,21.1978 48.5,23C 52.0267,23.8075 55.3601,23.6408 58.5,22.5C 58.8051,24.9193 58.8051,27.586 58.5,30.5C 54.1667,30.5 49.8333,30.5 45.5,30.5C 45.5,28.5 45.5,26.5 45.5,24.5C 44.5,24.5 43.5,24.5 42.5,24.5C 42.5,26.5 42.5,28.5 42.5,30.5C 41.5,30.5 40.5,30.5 39.5,30.5C 39.7683,27.8806 39.435,25.3806 38.5,23C 40.1957,21.8236 41.8624,20.657 43.5,19.5 Z"/></g>
<g><path style="opacity:1" fill="#91d2fd" d="M 32.5,23.5 C 34.337,23.6395 34.6704,24.3061 33.5,25.5C 32.7025,25.0431 32.3691,24.3764 32.5,23.5 Z"/></g>
<g><path style="opacity:1" fill="#f3865e" d="M 45.5,30.5 C 44.5,30.5 43.5,30.5 42.5,30.5C 42.5,28.5 42.5,26.5 42.5,24.5C 43.5,24.5 44.5,24.5 45.5,24.5C 45.5,26.5 45.5,28.5 45.5,30.5 Z"/></g>
<g><path style="opacity:1" fill="#44bcf7" d="M 51.5,25.5 C 53.1765,26.1834 53.8432,27.5168 53.5,29.5C 52.5,29.5 51.5,29.5 50.5,29.5C 50.2322,27.901 50.5655,26.5676 51.5,25.5 Z"/></g>
<g><path style="opacity:1" fill="#a2dee8" d="M 51.5,25.5 C 53.5,24.1667 55.5,24.1667 57.5,25.5C 56.5,25.5 55.5,25.5 54.5,25.5C 54.5,26.8333 54.5,28.1667 54.5,29.5C 54.1667,29.5 53.8333,29.5 53.5,29.5C 53.8432,27.5168 53.1765,26.1834 51.5,25.5 Z"/></g>
<g><path style="opacity:1" fill="#21bbf9" d="M 57.5,25.5 C 57.5,26.8333 57.5,28.1667 57.5,29.5C 56.5,29.5 55.5,29.5 54.5,29.5C 54.5,28.1667 54.5,26.8333 54.5,25.5C 55.5,25.5 56.5,25.5 57.5,25.5 Z"/></g>
<g><path style="opacity:0.981" fill="#556a75" d="M 39.5,30.5 C 40.5,30.5 41.5,30.5 42.5,30.5C 43.5,30.5 44.5,30.5 45.5,30.5C 49.8333,30.5 54.1667,30.5 58.5,30.5C 59.8333,30.5 61.1667,30.5 62.5,30.5C 62.5,33.1667 62.5,35.8333 62.5,38.5C 59.8187,38.5379 57.3187,37.8713 55,36.5C 51.1531,37.7992 47.3197,37.7992 43.5,36.5C 40.5711,38.3274 37.5711,38.6608 34.5,37.5C 34.5,35.5 34.5,33.5 34.5,31.5C 35.9187,30.5489 37.5853,30.2155 39.5,30.5 Z"/></g>
<g><path style="opacity:0.994" fill="#24a6fd" d="M 60.5,43.5 C 60.0075,45.8185 59.0075,47.8185 57.5,49.5C 56.7387,48.6091 55.7387,47.9424 54.5,47.5C 50.7633,50.0767 47.0966,50.0767 43.5,47.5C 39.6647,50.0993 35.8314,50.0993 32,47.5C 28.3333,50.1667 24.6667,50.1667 21,47.5C 17.1686,50.0993 13.3353,50.0993 9.5,47.5C 8.14011,48.1799 6.80678,48.8466 5.5,49.5C 3.99249,47.8185 2.99249,45.8185 2.5,43.5C 21.86,42.4867 41.1933,42.4867 60.5,43.5 Z"/></g>
<g><path style="opacity:0.965" fill="#0693fc" d="M 57.5,49.5 C 53.3152,56.5822 47.3152,61.2489 39.5,63.5C 34.1667,63.5 28.8333,63.5 23.5,63.5C 15.6848,61.2489 9.6848,56.5822 5.5,49.5C 6.80678,48.8466 8.14011,48.1799 9.5,47.5C 13.3353,50.0993 17.1686,50.0993 21,47.5C 24.6667,50.1667 28.3333,50.1667 32,47.5C 35.8314,50.0993 39.6647,50.0993 43.5,47.5C 47.0966,50.0767 50.7633,50.0767 54.5,47.5C 55.7387,47.9424 56.7387,48.6091 57.5,49.5 Z"/></g>
</svg>
