<svg id="visual" viewBox="0 0 900 900" width="900" height="900" xmlns="http://www.w3.org/2000/svg" xmlns:xlink="http://www.w3.org/1999/xlink" version="1.1"><rect x="0" y="0" width="900" height="900" fill="#001220"></rect><defs><linearGradient id="grad1_0" x1="0%" y1="100%" x2="100%" y2="0%"><stop offset="30%" stop-color="#fbae3c" stop-opacity="1"></stop><stop offset="70%" stop-color="#fbae3c" stop-opacity="1"></stop></linearGradient></defs><defs><linearGradient id="grad1_1" x1="0%" y1="100%" x2="100%" y2="0%"><stop offset="30%" stop-color="#fbae3c" stop-opacity="1"></stop><stop offset="70%" stop-color="#96446e" stop-opacity="1"></stop></linearGradient></defs><defs><linearGradient id="grad1_2" x1="0%" y1="100%" x2="100%" y2="0%"><stop offset="30%" stop-color="#001220" stop-opacity="1"></stop><stop offset="70%" stop-color="#96446e" stop-opacity="1"></stop></linearGradient></defs><defs><linearGradient id="grad2_0" x1="0%" y1="100%" x2="100%" y2="0%"><stop offset="30%" stop-color="#fbae3c" stop-opacity="1"></stop><stop offset="70%" stop-color="#fbae3c" stop-opacity="1"></stop></linearGradient></defs><defs><linearGradient id="grad2_1" x1="0%" y1="100%" x2="100%" y2="0%"><stop offset="30%" stop-color="#96446e" stop-opacity="1"></stop><stop offset="70%" stop-color="#fbae3c" stop-opacity="1"></stop></linearGradient></defs><defs><linearGradient id="grad2_2" x1="0%" y1="100%" x2="100%" y2="0%"><stop offset="30%" stop-color="#96446e" stop-opacity="1"></stop><stop offset="70%" stop-color="#001220" stop-opacity="1"></stop></linearGradient></defs><g transform="translate(900, 900)"><path d="M-572.8 0C-571.8 -82.6 -570.9 -165.2 -529.2 -219.2C-487.4 -273.1 -404.9 -298.4 -350.7 -350.7C-296.5 -403 -270.7 -482.3 -217 -523.8C-163.3 -565.3 -81.6 -569.1 0 -572.8L0 0Z" fill="#3d3056"></path><path d="M-381.8 0C-381.2 -55.1 -380.6 -110.2 -352.8 -146.1C-325 -182.1 -269.9 -199 -233.8 -233.8C-197.7 -268.7 -180.5 -321.6 -144.7 -349.2C-108.8 -376.9 -54.4 -379.4 0 -381.8L0 0Z" fill="#e1685e"></path><path d="M-190.9 0C-190.6 -27.5 -190.3 -55.1 -176.4 -73.1C-162.5 -91 -135 -99.5 -116.9 -116.9C-98.8 -134.3 -90.2 -160.8 -72.3 -174.6C-54.4 -188.4 -27.2 -189.7 0 -190.9L0 0Z" fill="#fbae3c"></path></g><g transform="translate(0, 0)"><path d="M572.8 0C558.4 75.9 544.1 151.8 508.1 210.5C472.2 269.1 414.7 310.5 366.3 366.3C317.9 422.1 278.7 492.3 219.2 529.2C159.7 566 79.8 569.4 0 572.8L0 0Z" fill="#3d3056"></path><path d="M381.8 0C372.3 50.6 362.7 101.2 338.8 140.3C314.8 179.4 276.4 207 244.2 244.2C211.9 281.4 185.8 328.2 146.1 352.8C106.4 377.3 53.2 379.6 0 381.8L0 0Z" fill="#e1685e"></path><path d="M190.9 0C186.1 25.3 181.4 50.6 169.4 70.2C157.4 89.7 138.2 103.5 122.1 122.1C106 140.7 92.9 164.1 73.1 176.4C53.2 188.7 26.6 189.8 0 190.9L0 0Z" fill="#fbae3c"></path></g></svg>