<svg id="visual" viewBox="0 0 900 450" width="900" height="450" xmlns="http://www.w3.org/2000/svg" xmlns:xlink="http://www.w3.org/1999/xlink" version="1.1"><rect x="0" y="0" width="900" height="450" fill="#001122"></rect><defs><linearGradient id="grad1_0" x1="50%" y1="100%" x2="100%" y2="0%"><stop offset="10%" stop-color="#fbae3c" stop-opacity="1"></stop><stop offset="90%" stop-color="#fbae3c" stop-opacity="1"></stop></linearGradient></defs><defs><linearGradient id="grad1_1" x1="50%" y1="100%" x2="100%" y2="0%"><stop offset="10%" stop-color="#fbae3c" stop-opacity="1"></stop><stop offset="90%" stop-color="#98426a" stop-opacity="1"></stop></linearGradient></defs><defs><linearGradient id="grad1_2" x1="50%" y1="100%" x2="100%" y2="0%"><stop offset="10%" stop-color="#001122" stop-opacity="1"></stop><stop offset="90%" stop-color="#98426a" stop-opacity="1"></stop></linearGradient></defs><defs><linearGradient id="grad2_0" x1="0%" y1="100%" x2="50%" y2="0%"><stop offset="10%" stop-color="#fbae3c" stop-opacity="1"></stop><stop offset="90%" stop-color="#fbae3c" stop-opacity="1"></stop></linearGradient></defs><defs><linearGradient id="grad2_1" x1="0%" y1="100%" x2="50%" y2="0%"><stop offset="10%" stop-color="#98426a" stop-opacity="1"></stop><stop offset="90%" stop-color="#fbae3c" stop-opacity="1"></stop></linearGradient></defs><defs><linearGradient id="grad2_2" x1="0%" y1="100%" x2="50%" y2="0%"><stop offset="10%" stop-color="#98426a" stop-opacity="1"></stop><stop offset="90%" stop-color="#001122" stop-opacity="1"></stop></linearGradient></defs><g transform="translate(900, 450)"><path d="M-360 0C-351.7 -48.3 -343.4 -96.7 -319.7 -132.4C-295.9 -168.1 -256.7 -191.2 -226.3 -226.3C-195.8 -261.3 -174 -308.3 -137.8 -332.6C-101.5 -356.9 -50.8 -358.4 0 -360L0 0Z" fill="#412e55"></path><path d="M-240 0C-234.5 -32.2 -228.9 -64.5 -213.1 -88.3C-197.3 -112.1 -171.2 -127.5 -150.8 -150.8C-130.5 -174.2 -116 -205.5 -91.8 -221.7C-67.7 -237.9 -33.8 -239 0 -240L0 0Z" fill="#e1685b"></path><path d="M-120 0C-117.2 -16.1 -114.5 -32.2 -106.6 -44.1C-98.6 -56 -85.6 -63.7 -75.4 -75.4C-65.3 -87.1 -58 -102.8 -45.9 -110.9C-33.8 -119 -16.9 -119.5 0 -120L0 0Z" fill="#fbae3c"></path></g><g transform="translate(0, 0)"><path d="M360 0C340.3 40.3 320.5 80.6 306.7 127.1C293 173.5 285.1 226.3 254.6 254.6C224 282.9 170.6 286.8 124.4 300.3C78.1 313.8 39.1 336.9 0 360L0 0Z" fill="#412e55"></path><path d="M240 0C226.8 26.9 213.7 53.7 204.5 84.7C195.3 115.7 190.1 150.8 169.7 169.7C149.3 188.6 113.7 191.2 82.9 200.2C52.1 209.2 26 224.6 0 240L0 0Z" fill="#e1685b"></path><path d="M120 0C113.4 13.4 106.8 26.9 102.2 42.4C97.7 57.8 95 75.4 84.9 84.9C74.7 94.3 56.9 95.6 41.5 100.1C26 104.6 13 112.3 0 120L0 0Z" fill="#fbae3c"></path></g></svg>